<?xml version="1.0" encoding="UTF-8" standalone="no"?>
<!-- Created with Inkscape (http://www.inkscape.org/) -->

<svg
   xmlns:dc="http://purl.org/dc/elements/1.1/"
   xmlns:cc="http://creativecommons.org/ns#"
   xmlns:rdf="http://www.w3.org/1999/02/22-rdf-syntax-ns#"
   xmlns:svg="http://www.w3.org/2000/svg"
   xmlns="http://www.w3.org/2000/svg"
   version="1.1"
   width="21.76"
   height="13.05775"
   id="svg2"
   xml:space="preserve"><metadata
     id="metadata8"><rdf:RDF><cc:Work
         rdf:about=""><dc:format>image/svg+xml</dc:format><dc:type
           rdf:resource="http://purl.org/dc/dcmitype/StillImage" /><dc:title></dc:title></cc:Work></rdf:RDF></metadata><defs
     id="defs6"><clipPath
       id="clipPath76"><path
         d="m 0,841.89 595.28,0 L 595.28,0 0,0 0,841.89 z"
         id="path78" /></clipPath><clipPath
       id="clipPath106"><path
         d="m 0,841.89 595.28,0 L 595.28,0 0,0 0,841.89 z"
         id="path108" /></clipPath><clipPath
       id="clipPath298"><path
         d="m 0,841.89 595.28,0 L 595.28,0 0,0 0,841.89 z"
         id="path300" /></clipPath><clipPath
       id="clipPath342"><path
         d="m 0,841.89 595.28,0 L 595.28,0 0,0 0,841.89 z"
         id="path344" /></clipPath><clipPath
       id="clipPath388"><path
         d="m 0,841.89 595.28,0 L 595.28,0 0,0 0,841.89 z"
         id="path390" /></clipPath><clipPath
       id="clipPath474"><path
         d="m 0,841.89 595.28,0 L 595.28,0 0,0 0,841.89 z"
         id="path476" /></clipPath></defs><g
     transform="matrix(1.25,0,0,-1.25,-28.439875,247.83238)"
     id="g10"><path
       d="m 0,0 595.279,0 0,841.89 L 0,841.89 0,0 z"
       id="path12"
       style="fill:#ffffff;fill-opacity:1;fill-rule:nonzero;stroke:none" /><text
       transform="matrix(1,0,0,-1,43.9551,590.8071)"
       id="text14"><tspan
         x="0 5.6900001 12.21 18.08 23.77 29.85 32.240002 37.93 45.009998 51.77"
         y="0"
         id="tspan16"
         style="font-size:10px;font-variant:normal;font-weight:normal;font-stretch:normal;writing-mode:lr-tb;fill:#5397d0;fill-opacity:1;fill-rule:nonzero;stroke:none;font-family:Proxima Nova Rg;-inkscape-font-specification:ProximaNova-Regular">EXPERIENCE</tspan></text>
<text
       transform="matrix(1,0,0,-1,310.021,708.3242)"
       id="text18"><tspan
         x="0 5.0760002 7.0019999 9.4770002 11.403"
         y="0"
         id="tspan20"
         style="font-size:9px;font-variant:normal;font-weight:300;font-stretch:normal;writing-mode:lr-tb;fill:#515455;fill-opacity:1;fill-rule:nonzero;stroke:none;font-family:Proxima Nova Lt;-inkscape-font-specification:ProximaNova-Light">Title</tspan><tspan
         x="0 6.3990002 8.3249998 10.8 17.127001 21.987"
         y="18"
         id="tspan22"
         style="font-size:9px;font-variant:normal;font-weight:300;font-stretch:normal;writing-mode:lr-tb;fill:#515455;fill-opacity:1;fill-rule:nonzero;stroke:none;font-family:Proxima Nova Lt;-inkscape-font-specification:ProximaNova-Light">GitHub</tspan><tspan
         x="0 4.5359998 6.4619999 11.322 15.858 20.961 26.1 28.107"
         y="36"
         id="tspan24"
         style="font-size:9px;font-variant:normal;font-weight:300;font-stretch:normal;writing-mode:lr-tb;fill:#515455;fill-opacity:1;fill-rule:nonzero;stroke:none;font-family:Proxima Nova Lt;-inkscape-font-specification:ProximaNova-Light">LinkedIn</tspan><tspan
         x="0 7.4429998 12.546"
         y="54"
         id="tspan26"
         style="font-size:9px;font-variant:normal;font-weight:300;font-stretch:normal;writing-mode:lr-tb;fill:#515455;fill-opacity:1;fill-rule:nonzero;stroke:none;font-family:Proxima Nova Lt;-inkscape-font-specification:ProximaNova-Light">Web</tspan><tspan
         x="0 6.0479999 11.187 16.047001 18.521999 23.211 27.657"
         y="72"
         id="tspan28"
         style="font-size:9px;font-variant:normal;font-weight:300;font-stretch:normal;writing-mode:lr-tb;fill:#515455;fill-opacity:1;fill-rule:nonzero;stroke:none;font-family:Proxima Nova Lt;-inkscape-font-specification:ProximaNova-Light">Contact</tspan><tspan
         x="0 5.0760002 12.177 16.865999 18.792"
         y="90"
         id="tspan30"
         style="font-size:9px;font-variant:normal;font-weight:300;font-stretch:normal;writing-mode:lr-tb;fill:#515455;fill-opacity:1;fill-rule:nonzero;stroke:none;font-family:Proxima Nova Lt;-inkscape-font-specification:ProximaNova-Light">Email</tspan></text>
<text
       transform="matrix(1,0,0,-1,387.718,707.3702)"
       id="text32"><tspan
         x="0 5.1209998 10.08 12.726 15.696 20.763 25.910999 28.881001 33.948002 38.907001 43.973999 48.932999 51.903 54.224998 58.967999 63.926998 69.101997 71.424004 76.374001 81.333 83.358002 85.383003 88.083 93.204002 95.849998 100.593 105.048 109.674 111.996 119.583 124.65 129.825 132.147 138.44701 143.51401 147.924 152.991 155.01601 160.164 165.312 170.379"
         y="0"
         id="tspan34"
         style="font-size:9px;font-variant:normal;font-weight:normal;font-stretch:normal;writing-mode:lr-tb;fill:#171717;fill-opacity:1;fill-rule:nonzero;stroke:none;font-family:Proxima Nova Rg;-inkscape-font-specification:ProximaNova-Regular">Entrepreneur and Full-Stack Web Developer</tspan><tspan
         x="0 5.1659999 7.191 9.8369999 14.805 19.764 24.875999 26.882099 31.337099 36.4851 43.757099 46.421101 51.542099 54.5121 56.537102 60.2631 64.358101 69.425102 74.384102 79.559097 81.584099 86.327103 91.286102 93.608101 95.840103 100.9881 106.1361 111.2031 116.1621 118.4841 122.6691 127.8171 132.77609 135.74609 140.2011 145.2681 147.3381"
         y="18"
         id="tspan36"
         style="font-size:9px;font-variant:normal;font-weight:normal;font-stretch:normal;writing-mode:lr-tb;fill:#171717;fill-opacity:1;fill-rule:nonzero;stroke:none;font-family:Proxima Nova Rg;-inkscape-font-specification:ProximaNova-Regular">github.com/EricTendian (open source!)</tspan><tspan
         x="0 2.0250001 4.0500002 9.0089998 13.608 18.674999 23.85 25.875 30.834 32.841 37.296001 42.444 49.716 52.380001 54.404999 59.363998 62.028 67.095001 70.065002 72.089996 76.544998 79.191002 84.258003 89.217003 94.391998 96.417 101.16 106.119 108.441 110.673 113.22 118.179 120.204 122.229 124.551 126.576 128.601 132.786 135.43201 137.754 142.90199 145.44901 147.771 152.51401 159.12 163.86301 166.83299 172.008 176.19299"
         y="36"
         id="tspan38"
         style="font-size:9px;font-variant:normal;font-weight:normal;font-stretch:normal;writing-mode:lr-tb;fill:#171717;fill-opacity:1;fill-rule:nonzero;stroke:none;font-family:Proxima Nova Rg;-inkscape-font-specification:ProximaNova-Regular">linkedin.com/in/erictendian (full list of awards)</tspan><tspan
         x="0 2.6459999 7.7129998 12.672 17.847 19.872 24.615 29.573999 31.643999 33.668999 38.817001 41.139 43.370998 45.396 50.355 54.810001 56.834999 61.793999 66.969002 72.036003 76.221001 78.542999 83.691002 88.838997 91.808998 94.455002 97.001999 102.15 104.175 106.2 111.348"
         y="54"
         id="tspan40"
         style="font-size:9px;font-variant:normal;font-weight:normal;font-stretch:normal;writing-mode:lr-tb;fill:#171717;fill-opacity:1;fill-rule:nonzero;stroke:none;font-family:Proxima Nova Rg;-inkscape-font-specification:ProximaNova-Regular">tendian.io (includes portfolio)</tspan><tspan
         x="0 2.2320001 7.2449999 10.296 15.588 17.82 20.142 25.164 29.799 35.118 37.818001 43.137001 48.429001 53.442001"
         y="72"
         id="tspan42"
         style="font-size:9px;font-variant:normal;font-weight:normal;font-stretch:normal;writing-mode:lr-tb;fill:#171717;fill-opacity:1;fill-rule:nonzero;stroke:none;font-family:Proxima Nova Rg;-inkscape-font-specification:ProximaNova-Regular">(312) 476-9235</tspan><tspan
         x="0 5.0669999 8.0369997 10.062 14.517 21.563999 24.209999 29.277 34.236 39.410999 41.436001 46.179001 51.138 53.208 55.233002"
         y="90"
         id="tspan44"
         style="font-size:9px;font-variant:normal;font-weight:normal;font-stretch:normal;writing-mode:lr-tb;fill:#171717;fill-opacity:1;fill-rule:nonzero;stroke:none;font-family:Proxima Nova Rg;-inkscape-font-specification:ProximaNova-Regular">eric@tendian.io</tspan></text>
<g
       id="g4377"><g
         transform="translate(31.7375,593.7214)"
         id="g46"><path
           d="m 0,0 -0.628,0 0,-0.628 -3.142,0 0,0.628 -0.627,0 -4.712,0 -0.629,0 0,-5.654 15.078,0 L 5.34,0 4.711,0 0,0 z"
           id="path48"
           style="fill:#5397d0;fill-opacity:1;fill-rule:nonzero;stroke:none" /></g><path
         d="m 27.968,600.946 3.141,0 0,-0.942 -3.141,0 0,0.942 z m 3.77,-0.942 0,1.57 -4.398,0 0,-1.57 -5.34,0 0,-5.654 0.628,0 4.712,0 0.628,0 0,0.628 3.141,0 0,-0.628 0.629,0 4.711,0 0.628,0 0,5.654 -5.339,0 z"
         id="path50"
         style="fill:#5397d0;fill-opacity:1;fill-rule:nonzero;stroke:none" /></g><path
       d="m 22,583.227 552.622,0 0,0.25 -552.622,0 0,-0.25 z"
       id="path52"
       style="fill:#5397d0;fill-opacity:1;fill-rule:nonzero;stroke:none" /><text
       transform="matrix(1,0,0,-1,332.6338,730.1099)"
       id="text54"><tspan
         x="0 5.8699999 11.56 17.639999 23.5 31.15 38.23 44.810001 49.91 52.490002 59.490002 65.18 70.209999 76.790001 79.18 84.279999"
         y="0"
         id="tspan56"
         style="font-size:10px;font-variant:normal;font-weight:normal;font-stretch:normal;writing-mode:lr-tb;fill:#5397d0;fill-opacity:1;fill-rule:nonzero;stroke:none;font-family:Proxima Nova Rg;-inkscape-font-specification:ProximaNova-Regular">PERSONAL DETAILS</tspan></text>
<path
       d="m 309.56,719.945 264.393,0 0,0.25 -264.393,0 0,-0.25 z"
       id="path58"
       style="fill:#5397d0;fill-opacity:1;fill-rule:nonzero;stroke:none" /><path
       d="m 310.466,702.009 264.393,0 0,0.251 -264.393,0 0,-0.251 z"
       id="path60"
       style="fill:#bbbdba;fill-opacity:1;fill-rule:nonzero;stroke:none" /><path
       d="m 310.466,683.842 264.393,0 0,0.251 -264.393,0 0,-0.251 z"
       id="path62"
       style="fill:#bbbdba;fill-opacity:1;fill-rule:nonzero;stroke:none" /><path
       d="m 310.466,665.518 264.393,0 0,0.25 -264.393,0 0,-0.25 z"
       id="path64"
       style="fill:#bbbdba;fill-opacity:1;fill-rule:nonzero;stroke:none" /><path
       d="m 310.466,647.32 264.393,0 0,0.251 -264.393,0 0,-0.251 z"
       id="path66"
       style="fill:#bbbdba;fill-opacity:1;fill-rule:nonzero;stroke:none" /><path
       d="m 310.466,628.236 264.393,0 0,0.25 -264.393,0 0,-0.25 z"
       id="path68"
       style="fill:#bbbdba;fill-opacity:1;fill-rule:nonzero;stroke:none" /><path
       d="m 372.926,634.65 6.975,0 0,6.933 -6.975,0 0,-6.933 z"
       id="path70"
       style="fill:#7ed4e0;fill-opacity:1;fill-rule:nonzero;stroke:none" /><g
       id="g72"><g
         clip-path="url(#clipPath76)"
         id="g74"><g
           transform="translate(379.3108,643.3364)"
           id="g80"><path
             d="m 0,0 -5.795,0 c -0.326,0 -0.59,-0.265 -0.59,-0.591 l 0,-0.726 6.975,0 0,0.726 C 0.59,-0.265 0.326,0 0,0"
             id="path82"
             style="fill:#7ed4e0;fill-opacity:1;fill-rule:nonzero;stroke:none" /></g><path
           d="m 375.76,633.31 1.307,0 0,-0.436 -1.307,0 0,0.436 z m -2.834,-1.155 c 0,-0.326 0.264,-0.59 0.59,-0.59 l 5.795,0 c 0.325,0 0.59,0.264 0.59,0.59 l 0,2.059 -6.975,0 0,-2.059 z"
           id="path84"
           style="fill:#7ed4e0;fill-opacity:1;fill-rule:nonzero;stroke:none" /><g
           transform="translate(318.5968,729.3977)"
           id="g86"><path
             d="m 0,0 -2.23,0 0,0.558 0.557,0 0,4.739 -0.557,0 0,0.558 1.672,0 0,-0.265 0,-0.293 0,-4.739 L 0,0.558 0,0 z m -1.125,8.084 c 0.461,0 0.835,-0.373 0.835,-0.836 0,-0.461 -0.374,-0.835 -0.835,-0.835 -0.462,0 -0.837,0.374 -0.837,0.835 0,0.463 0.375,0.836 0.837,0.836 m -0.036,2.765 c -3.849,0 -6.97,-3.121 -6.97,-6.97 0,-3.85 3.121,-6.97 6.97,-6.97 3.849,0 6.971,3.12 6.971,6.97 0,3.849 -3.122,6.97 -6.971,6.97"
             id="path88"
             style="fill:#5397d0;fill-opacity:1;fill-rule:nonzero;stroke:none" /></g><g
           transform="translate(381.1809,623.5693)"
           id="g90"><path
             d="M 0,0 -10.304,-4.945 -6.583,-6.583 0,0 z"
             id="path92"
             style="fill:#d5cd80;fill-opacity:1;fill-rule:nonzero;stroke:none" /></g><g
           transform="translate(374.9309,616.7031)"
           id="g94"><path
             d="M 0,0 1.863,-3.748 6.583,6.583 0,0 z"
             id="path96"
             style="fill:#d5cd80;fill-opacity:1;fill-rule:nonzero;stroke:none" /></g></g></g><text
       transform="matrix(1,0,0,-1,45.1523,190.1655)"
       id="text98"><tspan
         x="0 5.6900001 12.69 19.690001 26.42 32.330002 38.029999 40.419998 48.07"
         y="0"
         id="tspan100"
         style="font-size:10px;font-variant:normal;font-weight:normal;font-stretch:normal;writing-mode:lr-tb;fill:#5397d0;fill-opacity:1;fill-rule:nonzero;stroke:none;font-family:Proxima Nova Rg;-inkscape-font-specification:ProximaNova-Regular">EDUCATION</tspan></text>
<g
       id="g102"><g
         clip-path="url(#clipPath106)"
         id="g104"><g
           id="g4401"><g
             transform="translate(27.1037,192.0857)"
             id="g110"><path
               d="M 0,0 0,-2.089 4.354,-4.266 8.705,-2.089 8.705,0 4.354,-2.089 0,0 z"
               id="path112"
               style="fill:#5397d0;fill-opacity:1;fill-rule:nonzero;stroke:none" /></g><g
             transform="translate(30.7599,194.7839)"
             id="g114"><path
               d="M 0,0 C 0,0.24 0.312,0.435 0.697,0.435 1.08,0.435 1.393,0.24 1.393,0 1.393,-0.24 1.08,-0.435 0.697,-0.435 0.312,-0.435 0,-0.24 0,0 M 9.4,0 0.697,3.482 -8.008,0 0.697,-4.353 9.4,0 z"
               id="path116"
               style="fill:#5397d0;fill-opacity:1;fill-rule:nonzero;stroke:none" /></g><g
             transform="translate(24.0569,190.3714)"
             id="g118"><path
               d="m 0,0 0,3.325 c 0,0.12 -0.098,0.217 -0.217,0.217 -0.121,0 -0.217,-0.097 -0.217,-0.217 l 0,-3.325 c -0.13,-0.076 -0.218,-0.214 -0.218,-0.375 0,-0.161 0.088,-0.299 0.218,-0.375 l 0,-0.713 c 0,-0.12 0.096,-0.218 0.217,-0.218 0.119,0 0.217,0.098 0.217,0.218 l 0,0.713 c 0.131,0.076 0.219,0.214 0.219,0.375 C 0.219,-0.214 0.131,-0.076 0,0"
               id="path120"
               style="fill:#5397d0;fill-opacity:1;fill-rule:nonzero;stroke:none" /></g></g><g
           transform="translate(375.9651,651.4741)"
           id="g122"><path
             d="m 0,0 -0.004,0 -0.002,0 c -0.002,0 -0.004,0 -0.006,0 -2.643,0.006 -4.783,2.151 -4.783,4.795 0,2.644 2.14,4.788 4.783,4.794 0.002,0 0.004,10e-4 0.006,10e-4 l 0.002,0 0.004,0 C 2.647,9.59 4.795,7.443 4.795,4.795 4.795,2.147 2.647,0 0,0 m 0,10.007 -0.004,0 -0.002,0 c -0.003,0 -0.005,-10e-4 -0.007,-10e-4 C -2.886,10 -5.212,7.669 -5.212,4.795 c 0,-2.874 2.326,-5.205 5.199,-5.212 0.002,0 0.004,0 0.007,0 l 0.002,0 0.004,0 c 2.878,0 5.212,2.334 5.212,5.212 0,2.878 -2.334,5.212 -5.212,5.212"
             id="path124"
             style="fill:#a2db94;fill-opacity:1;fill-rule:nonzero;stroke:none" /></g><g
           transform="translate(377.6252,658.3779)"
           id="g126"><path
             d="m 0,0 c -0.468,-0.114 -0.953,-0.181 -1.452,-0.195 l 0,-1.705 1.696,0 C 0.229,-1.198 0.142,-0.557 0,0"
             id="path128"
             style="fill:#a2db94;fill-opacity:1;fill-rule:nonzero;stroke:none" /></g><g
           transform="translate(376.1736,660.6157)"
           id="g130"><path
             d="m 0,0 0,-2.052 c 0.462,0.014 0.914,0.076 1.348,0.181 C 1.02,-0.833 0.508,-0.153 0,0"
             id="path132"
             style="fill:#a2db94;fill-opacity:1;fill-rule:nonzero;stroke:none" /></g><g
           transform="translate(374.3977,658.747)"
           id="g134"><path
             d="m 0,0 c 0.438,-0.106 0.892,-0.168 1.359,-0.183 l 0,2.057 C 0.848,1.728 0.331,1.044 0,0"
             id="path136"
             style="fill:#a2db94;fill-opacity:1;fill-rule:nonzero;stroke:none" /></g><g
           transform="translate(379.0881,659.3398)"
           id="g138"><path
             d="M 0,0 C -0.567,0.576 -1.291,0.996 -2.103,1.191 -1.733,0.807 -1.42,0.222 -1.197,-0.495 -0.779,-0.368 -0.378,-0.202 0,0"
             id="path140"
             style="fill:#a2db94;fill-opacity:1;fill-rule:nonzero;stroke:none" /></g><g
           transform="translate(378.2536,656.4775)"
           id="g142"><path
             d="M 0,0 2.088,0 C 2.042,0.973 1.678,1.864 1.097,2.571 0.67,2.336 0.216,2.143 -0.26,2 -0.107,1.398 -0.016,0.72 0,0"
             id="path144"
             style="fill:#a2db94;fill-opacity:1;fill-rule:nonzero;stroke:none" /></g><g
           transform="translate(374.0486,656.4775)"
           id="g146"><path
             d="m 0,0 1.708,0 0,1.706 C 1.205,1.72 0.716,1.788 0.245,1.903 0.103,1.345 0.016,0.703 0,0"
             id="path148"
             style="fill:#a2db94;fill-opacity:1;fill-rule:nonzero;stroke:none" /></g><g
           transform="translate(377.8694,656.0605)"
           id="g150"><path
             d="m 0,0 -1.696,0 0,-1.704 c 0.499,-0.014 0.984,-0.081 1.453,-0.194 C -0.103,-1.342 -0.015,-0.702 0,0"
             id="path152"
             style="fill:#a2db94;fill-opacity:1;fill-rule:nonzero;stroke:none" /></g><g
           transform="translate(374.2927,654.1596)"
           id="g154"><path
             d="m 0,0 c 0.472,0.115 0.961,0.183 1.464,0.197 l 0,1.704 -1.708,0 C -0.228,1.198 -0.141,0.556 0,0"
             id="path156"
             style="fill:#a2db94;fill-opacity:1;fill-rule:nonzero;stroke:none" /></g><g
           transform="translate(375.7566,651.9179)"
           id="g158"><path
             d="M 0,0 0,2.058 C -0.467,2.044 -0.921,1.982 -1.359,1.875 -1.029,0.83 -0.512,0.146 0,0"
             id="path160"
             style="fill:#a2db94;fill-opacity:1;fill-rule:nonzero;stroke:none" /></g><g
           transform="translate(376.9856,652.0073)"
           id="g162"><path
             d="M 0,0 C 0.812,0.195 1.537,0.615 2.104,1.192 1.724,1.394 1.324,1.561 0.906,1.687 0.683,0.97 0.37,0.384 0,0"
             id="path164"
             style="fill:#a2db94;fill-opacity:1;fill-rule:nonzero;stroke:none" /></g><g
           transform="translate(374.9294,660.5273)"
           id="g166"><path
             d="m 0,0 c -0.805,-0.196 -1.524,-0.614 -2.087,-1.187 0.375,-0.201 0.772,-0.366 1.186,-0.492 C -0.679,-0.966 -0.368,-0.384 0,0"
             id="path168"
             style="fill:#a2db94;fill-opacity:1;fill-rule:nonzero;stroke:none" /></g><g
           transform="translate(377.9944,654.062)"
           id="g170"><path
             d="m 0,0 c 0.476,-0.144 0.93,-0.336 1.357,-0.572 0.581,0.707 0.944,1.598 0.991,2.57 l -2.089,0 C 0.244,1.28 0.152,0.602 0,0"
             id="path172"
             style="fill:#a2db94;fill-opacity:1;fill-rule:nonzero;stroke:none" /></g><g
           transform="translate(376.1736,653.976)"
           id="g174"><path
             d="M 0,0 0,-2.054 C 0.508,-1.9 1.021,-1.219 1.348,-0.18 0.914,-0.076 0.463,-0.015 0,0"
             id="path176"
             style="fill:#a2db94;fill-opacity:1;fill-rule:nonzero;stroke:none" /></g><g
           transform="translate(373.924,658.4799)"
           id="g178"><path
             d="M 0,0 C -0.471,0.143 -0.921,0.334 -1.346,0.568 -1.927,-0.138 -2.29,-1.03 -2.335,-2.002 l 2.076,0 C -0.244,-1.282 -0.152,-0.603 0,0"
             id="path180"
             style="fill:#a2db94;fill-opacity:1;fill-rule:nonzero;stroke:none" /></g><g
           transform="translate(373.6648,656.0605)"
           id="g182"><path
             d="m 0,0 -2.076,0 c 0.046,-0.973 0.408,-1.864 0.99,-2.57 0.424,0.234 0.875,0.424 1.345,0.568 C 0.107,-1.399 0.016,-0.72 0,0"
             id="path184"
             style="fill:#a2db94;fill-opacity:1;fill-rule:nonzero;stroke:none" /></g><g
           transform="translate(372.8405,653.1992)"
           id="g186"><path
             d="M 0,0 C 0.564,-0.573 1.283,-0.992 2.089,-1.189 1.721,-0.805 1.41,-0.222 1.187,0.492 0.773,0.366 0.376,0.201 0,0"
             id="path188"
             style="fill:#a2db94;fill-opacity:1;fill-rule:nonzero;stroke:none" /></g></g></g><text
       transform="matrix(1,0,0,-1,44.6406,729.0669)"
       id="text190"><tspan
         x="0 5.8699999 11.95 19.6 25.1 27.49 32.59"
         y="0"
         id="tspan192"
         style="font-size:10px;font-variant:normal;font-weight:normal;font-stretch:normal;writing-mode:lr-tb;fill:#5397d0;fill-opacity:1;fill-rule:nonzero;stroke:none;font-family:Proxima Nova Rg;-inkscape-font-specification:ProximaNova-Regular">PROFILE</tspan><tspan
         x="288.26999 294.13 300.14001 302.53 307.63 312.73001"
         y="540.35999"
         id="tspan194"
         style="font-size:10px;font-variant:normal;font-weight:normal;font-stretch:normal;writing-mode:lr-tb;fill:#5397d0;fill-opacity:1;fill-rule:nonzero;stroke:none;font-family:Proxima Nova Rg;-inkscape-font-specification:ProximaNova-Regular">SKILLS</tspan></text>
<text
       transform="matrix(1,0,0,-1,155.126,479.0054)"
       id="text196"><tspan
         x="0 4.2389998 7.092 11.781 16.641001 20.771999 23.157 28.296 31.149 38.25 43.353001 48.492001 50.823002 55.512001 57.842999 64.944 70.083 74.943001 80.082001 82.008003 83.933998 86.408997 91.268997 93.195 97.640999 99.972 101.898 107.001 112.131 116.82 121.266 125.595 127.926 132.61501 137.718 142.821 144.74699 146.673 151.119 155.808 158.283 160.209 165.34801 170.20799 172.539 174.465 179.325 181.8 186.939 189.27 193.959 196.28999 203.39101 208.53 213.66901 218.772 221.625 226.485 228.81599 235.287 240.39 245.52901 247.86 252.549 257.65201 262.755 265.086 271.55701 273.483 275.95801 280.81799 283.14899 287.83801 290.16901 297.26999 299.19601 303.642 306.495 311.634 315.76501 320.86801 323.72101 328.04999 329.97601 334.422 339.52499 341.85599 346.54501 349.39801 353.84399 358.70401 360.63 363.10501 368.20801 372.65399 375.129 379.98901 382.84201 387.86401 389.83499"
         y="0"
         id="tspan198"
         style="font-size:9px;font-variant:normal;font-weight:300;font-stretch:normal;writing-mode:lr-tb;fill:#515455;fill-opacity:1;fill-rule:nonzero;stroke:none;font-family:Proxima Nova Lt;-inkscape-font-specification:ProximaNova-Light">Transformed a monolithic legacy application into a modern web app with a microservice architecture. </tspan></text>
<text
       transform="matrix(1,0,0,-1,155.126,467.0084)"
       id="text200"><tspan
         x="0 5.0310001 10.134 12.987 15.372 20.511 23.364 30.465 35.568001 40.707001 43.037998 50.139 54.999001 56.924999 59.400002 61.326 66.429001 68.355003 73.458 75.789001 80.928001 85.788002 90.917999 95.220001 99.18 104.283 108.414 110.745 115.434 120.294 125.433 127.764 132.3 137.403 142.506 144.981 147.312 152.41499 155.26801 160.407 165.54601 170.40601 174.85201 177.327 179.25301 184.392 189.252 191.58299 195.714 197.64 200.11501 205.218 207.549 210.40199 215.26199 220.12199 224.98199 226.908 231.76801 236.89799 239.229 243.36 250.461 255.60001 260.73901 263.21399 268.07401 270 273.798 275.76901 278.10001 285.20999 289.89899 294.444 296.37 301.23001 306.35999 308.69101 313.55099 317.68201 322.785 325.116 330.255 332.64001 334.97101 337.44601 342.54901 346.67999 349.155 351.85501 356.99399 359.84698 361.77301 366.10199 371.20499 376.065 378.396 383.535 388.638 392.96701 398.07001 399.996 405.13501 410.23801"
         y="0"
         id="tspan202"
         style="font-size:9px;font-variant:normal;font-weight:300;font-stretch:normal;writing-mode:lr-tb;fill:#515455;fill-opacity:1;fill-rule:nonzero;stroke:none;font-family:Proxima Nova Lt;-inkscape-font-specification:ProximaNova-Light">Performed multiple bugﬁxes and kept production site running smoothly. Making use of test-driven develop-</tspan></text>
<text
       transform="matrix(1,0,0,-1,155.126,455.0114)"
       id="text204"><tspan
         x="0 7.1009998 12.204 17.063999 19.539 21.870001 26.559 31.419001 36.557999 38.889 43.577999 48.438 50.769001 55.458 60.588001 62.514 64.440002 69.542999 71.874001 76.563004 81.666 86.768997 89.622002 94.761002 99.449997 103.896 108.756 111.087 117.558 119.484 121.959 126.819 129.14999 133.839 136.17 138.645 143.748 148.437 155.53799 157.869 163.008 165.39301 167.724 170.10899 175.248 180.108 182.961 185.29201 190.431 192.90601 197.76601 202.869 205.722 208.05299 213.15601 218.01601 223.146 225.07201 229.93201 235.035 240.138 242.991 247.12199 249.093 251.424 256.11301 260.24399 262.57501 265.04999 269.91 275.013 277.34399 282.483 287.34299 289.26901 293.59799 295.92899 301.03201 305.892 311.022 312.948 317.80801 322.91101 328.01401 330.867 332.793 337.65302 342.78299 345.11401 347.04001 351.89999 354.375 359.478 362.33099 367.19101 369.16199 371.49301 377.82001 382.923 384.849 389.952 395.05499 400.194 402.52499 405 410.13901"
         y="0"
         id="tspan206"
         style="font-size:9px;font-variant:normal;font-weight:300;font-stretch:normal;writing-mode:lr-tb;fill:#515455;fill-opacity:1;fill-rule:nonzero;stroke:none;font-family:Proxima Nova Lt;-inkscape-font-specification:ProximaNova-Light">ment and an agile approach with a team of four other engineers, as the only engineering intern. Helped to </tspan><tspan
         x="0 2.8529999 7.9559999 13.095 17.955 19.881001 21.806999 26.945999 29.277 34.416 39.888 46.368 48.699001 53.838001 56.223 58.554001 61.028999 65.889 70.991997 73.322998 78.426003 80.351997 85.041 87.515999 89.901001 95.040001 97.892998 104.967 106.668 110.799 113.13 115.515 120.375 125.235 129.681 132.15601 134.082 139.22099 144.08099 148.77 150.696 152.62199 155.097 159.42599 161.757 163.683 168.543 170.87399 176.013 180.873 182.799 187.12801 189.459 191.84399 196.983 201.843 204.696 207.02699 214.12801 219.267 224.127 226.60201 231.46201 235.593"
         y="11.997"
         id="tspan208"
         style="font-size:9px;font-variant:normal;font-weight:300;font-stretch:normal;writing-mode:lr-tb;fill:#515455;fill-opacity:1;fill-rule:nonzero;stroke:none;font-family:Proxima Nova Lt;-inkscape-font-specification:ProximaNova-Light">rebuild 80% of the platform’s functionality in only four months.</tspan></text>
<text
       transform="matrix(1,0,0,-1,155.126,492.3784)"
       id="text210"><tspan
         x="0 6.4460001 12.738 15.851 19.084999 27.159 32.956001 36.585999 42.778999 45.617001 51.875999 57.937 64.250999 66.725998 72.787003 78.980003 85.172997 88.803001 91.278 97.338997 103.653 106.491 109.12 115.181 118.415 124.608 128.23801 -133.089 -126.852 -121.055 -115.61 -109.956 -103.631 -97.834 -92.389"
         y="0"
         id="tspan212"
         style="font-size:11px;font-variant:normal;font-weight:normal;font-stretch:normal;writing-mode:lr-tb;fill:#231f20;fill-opacity:1;fill-rule:nonzero;stroke:none;font-family:Proxima Nova Rg;-inkscape-font-specification:ProximaNova-Regular">Software Engineering InternPackback</tspan></text>
<text
       transform="matrix(1,0,0,-1,22.0405,478.3789)"
       id="text214"><tspan
         x="0 7.9000001 13.11 17.92 20.51 26.33 32.41 35.490002 40.900002 43.490002 49.419998 52.009998 57.68 60.849998 66.519997 71.110001 76.779999 82.18"
         y="0"
         id="tspan216"
         style="font-size:10px;font-variant:normal;font-weight:300;font-stretch:normal;writing-mode:lr-tb;fill:#515455;fill-opacity:1;fill-rule:nonzero;stroke:none;font-family:Proxima Nova Lt;-inkscape-font-specification:ProximaNova-Light">May 2014 – present</tspan></text>
<text
       transform="matrix(1,0,0,-1,155.1255,404.6436)"
       id="text218"><tspan
         x="0 5.1389999 7.9920001 13.131 17.459999 19.386 24.525 29.628 34.766998 37.098 43.569 48.672001 53.811001 56.141998 61.280998 66.384003 70.514999 72.441002 77.570999 82.431 84.762001 89.450996 94.310997 99.449997 101.781 106.92 112.023 116.352 121.455 123.381 128.52 133.623 140.724 145.827 150.687 153.162 155.493 159.62399 164.72701 167.58 171.909 173.83501 178.28101 183.384 187.515 189.84599 192.321 197.46001 199.791 203.922 211.02299 215.71201 217.638 219.564 221.895 227.034 231.894 236.02499 237.951 242.811 247.914 252.045 256.17599 261.27899 265.41 267.741 272.42999 277.29001 282.42899 284.76001 286.686 291.54599 296.685 298.61099 302.94 304.866 310.005 314.86499 319.55399 321.48001 325.61099 327.582 329.91299 336.384 341.52301 344.37601 348.92099 350.84698 355.707 360.83701 363.168 367.61401 369.54001 374.67899 378.81 383.91299 385.83899 390.168 392.49899 398.97 400.896 403.371 408.23099"
         y="0"
         id="tspan220"
         style="font-size:9px;font-variant:normal;font-weight:300;font-stretch:normal;writing-mode:lr-tb;fill:#515455;fill-opacity:1;fill-rule:nonzero;stroke:none;font-family:Proxima Nova Lt;-inkscape-font-specification:ProximaNova-Light">Provided web design and development services to small businesses and individuals, working closely with </tspan><tspan
         x="0 5.1030002 9.7919998 14.238 19.098 21.429001 25.875 27.801001 29.726999 34.830002 39.689999 42.165001 44.495998 46.971001 52.110001 54.441002 59.580002 64.682999 66.609001 68.535004 72.863998 77.967003 80.82 83.151001 88.011002 89.936996 95.067001 99.927002 102.258 107.361 112.221 116.91 118.836 120.762 123.237 127.566 129.897 134.586 139.446 144.58501 146.916 154.017 158.70599 160.632 165.492 167.967 172.65601 174.582 179.442 184.131 189.27 191.196 196.299 198.63 202.761 207.89999 209.826 214.686 217.161 219.08701 224.226 229.086 233.217 235.188 237.519 244.395 248.841 253.287 257.97601 262.10699 264.03299 269.172 274.03201 278.72101 280.647 282.573 286.90201 289.233 294.37201 299.47501 301.401 306.504 311.634 316.323 318.798 323.901 329.04001 331.371 337.84201 342.98099 345.83401 350.379 352.70999 355.185 360.32401 362.655 367.34399 372.20401 377.34299 379.81799 384.67801 389.78101 392.634"
         y="11.997"
         id="tspan222"
         style="font-size:9px;font-variant:normal;font-weight:300;font-stretch:normal;writing-mode:lr-tb;fill:#515455;fill-opacity:1;fill-rule:nonzero;stroke:none;font-family:Proxima Nova Lt;-inkscape-font-specification:ProximaNova-Light">each client to deliver high quality and maintainable solutions. Occasionally delegated work to another </tspan><tspan
         x="0 5.1030002 9.7919998 12.645 15.12 19.98 25.083 27.198 29.169001 31.5 37.323002 39.249001 43.380001 48.519001 50.849998 55.952999 58.806 63.945 68.274002 70.199997 75.338997 80.442001 85.581001 87.912003 92.358002 97.497002 102.357 106.488 111.348 113.274 115.749 117.675 122.535 127.665 129.996 134.127 139.23 142.08299 146.412 148.338 152.784 157.88699 162.01801 164.349 166.82401 171.963 174.29401 179.433 184.293 188.424 190.35001 195.21001 200.313 204.444 208.575 213.67799 217.80901 220.14 225.27901 230.13901 232.47 236.799 241.48801 244.341 246.267 251.40601 256.26599 260.397 262.728 264.73499 269.811 272.142 277.00201 282.10501 287.20801 292.34698 296.478 298.80899 302.94 307.79999 312.246 317.10599 319.43701 324.12601 328.25699 330.58801 335.448 340.55099 343.026 349.49701 354.63599 357.48901 362.034 364.36499 368.496 373.599 376.07401 380.93399 386.03699 388.36801 393.50699 396.35999 398.69101 405.16199 410.26501 415.40399"
         y="23.993999"
         id="tspan224"
         style="font-size:9px;font-variant:normal;font-weight:300;font-stretch:normal;writing-mode:lr-tb;fill:#515455;fill-opacity:1;fill-rule:nonzero;stroke:none;font-family:Proxima Nova Lt;-inkscape-font-specification:ProximaNova-Light">partner. Also provided consulting services to businesses on various IT needs such as network setup or web </tspan><tspan
         x="0 4.8600001 9.9989996 14.13 16.605 18.531 23.391001 28.521 30.492001 32.823002 37.962002 40.814999 45.953999 50.283001 52.209 57.348 62.451 67.589996 69.920998 72.396004 77.499001 81.945 86.805 91.665001 93.591003 98.037003 102.726 104.652 106.983 111.114 115.974 121.077 126.18 131.319 134.172 136.647 138.978 143.66701 148.52699 153.666 155.99699 158.472 161.325 166.01401 167.94 172.8 174.726 179.586 184.716 187.047 189.522 194.661 196.992 198.918 203.778 208.91701 210.843 215.172 217.09801 222.237 227.097 231.786 233.71201 237.843 240.174 242.10001 246.96001 249.291 251.76601 256.62601 261.729 264.06 269.16299 273.85199 276.70499 278.63101 282.95999 285.29099 290.42999 295.11899 299.448 303.57901 305.91 311.04901 313.43399 315.76501 318.23999 323.10001 328.203 330.534 335.673 340.53299 344.664 346.59 351.45001 356.55301 360.68399 364.815"
         y="35.991001"
         id="tspan226"
         style="font-size:9px;font-variant:normal;font-weight:300;font-stretch:normal;writing-mode:lr-tb;fill:#515455;fill-opacity:1;fill-rule:nonzero;stroke:none;font-family:Proxima Nova Lt;-inkscape-font-specification:ProximaNova-Light">hosting. Provided technical support and training to individuals in the early days of the business.</tspan></text>
<text
       transform="matrix(1,0,0,-1,155.1255,418.0786)"
       id="text228"><tspan
         x="0 8.415 16.489 22.549999 28.743 31.4589 33.988899 36.8269 45.725899 51.5229 57.5839 63.380901 69.694901 72.169899 78.230904 84.544899 87.382896 93.619904 99.416901 103.0469 106.2809 112.3419 118.5349"
         y="0"
         id="tspan230"
         style="font-size:11px;font-variant:normal;font-weight:normal;font-stretch:normal;writing-mode:lr-tb;fill:#231f20;fill-opacity:1;fill-rule:nonzero;stroke:none;font-family:Proxima Nova Rg;-inkscape-font-specification:ProximaNova-Regular">Owner, Managing Partner</tspan><tspan
         x="-132.66 -127.655 -121.462 -115.401 -109.076 -106.601 -100.804 -94.742996 -92.212997 -89.737999 -83.445999 -80.608002 -73.171997 -66.879997 -60.819 -55.703999 -49.643002 -47.167999 -43.933998 -41.459 -35.397999"
         y="0.022"
         id="tspan232"
         style="font-size:11px;font-variant:normal;font-weight:normal;font-stretch:normal;writing-mode:lr-tb;fill:#231f20;fill-opacity:1;fill-rule:nonzero;stroke:none;font-family:Proxima Nova Rg;-inkscape-font-specification:ProximaNova-Regular">Tendian.io Consulting</tspan></text>
<text
       transform="matrix(1,0,0,-1,22.4673,404.0522)"
       id="text234"><tspan
         x="0 4.6999998 10.1 15.5 18.09 23.91 29.99 36.07 41.779999 44.369999 50.299999 52.889999 59.880001 65.589996 70.400002 72.989998 78.809998 84.889999 87.970001"
         y="0"
         id="tspan236"
         style="font-size:10px;font-variant:normal;font-weight:300;font-stretch:normal;writing-mode:lr-tb;fill:#515455;fill-opacity:1;fill-rule:nonzero;stroke:none;font-family:Proxima Nova Lt;-inkscape-font-specification:ProximaNova-Light">Jun 2008 – Nov 2014</tspan></text>
<text
       transform="matrix(1,0,0,-1,22.0347,270.166)"
       id="text238"><tspan
         x="0 7.4359999 13.508 15.983 21.427999 27.225 33.539001 39.831001 42.668999 49.125999 55.187 61.512001 63.987 66.461998 71.906998 74.745003 81.191002 86.636002 92.708 99 105.292 107.767"
         y="0"
         id="tspan240"
         style="font-size:11px;font-variant:normal;font-weight:normal;font-stretch:normal;writing-mode:lr-tb;fill:#231f20;fill-opacity:1;fill-rule:nonzero;stroke:none;font-family:Proxima Nova Rg;-inkscape-font-specification:ProximaNova-Regular">Chicago Public Schools</tspan></text>
<text
       transform="matrix(1,0,0,-1,22.0347,256.166)"
       id="text242"><tspan
         x="0 4.6999998 10.1 15.5 18.09 23.91 29.99 33.07 38.509998 41.099998 47.029999 49.619999 55.979 61.379002 67.079002 69.668999 75.488998 81.569 84.649002"
         y="0"
         id="tspan244"
         style="font-size:10px;font-variant:normal;font-weight:300;font-stretch:normal;writing-mode:lr-tb;fill:#515455;fill-opacity:1;fill-rule:nonzero;stroke:none;font-family:Proxima Nova Lt;-inkscape-font-specification:ProximaNova-Light">Jun 2013 – Aug 2013</tspan></text>
<text
       transform="matrix(1,0,0,-1,155.126,256.793)"
       id="text246"><tspan
         x="0 6.2280002 11.331 15.462 17.388 22.518 27.378 32.480999 37.619999 39.951 44.639999 49.5 54.639 56.970001 58.896 65.997002 71.099998 73.026001 78.128998 85.230003 90.333 95.193001 97.667999 102.771 107.91 110.241 114.93 117.261 124.704 129.80701 134.91 140.049 141.97501 146.304 148.63499 151.11 156.213 163.314 168.41701 170.343 175.032 177.507 182.61 184.94099 187.416 192.55499 194.886 200.02499 205.12801 207.459 212.319 216.45 221.55299 226.692 229.02299 234.162 238.491 240.82201 245.925 247.851 252.95399 260.05499 265.15799 270.01801 272.49301 277.18201 280.035 284.36401 286.69501 291.384 296.24399 301.383 303.71399 308.57401 310.5 315.63 320.48999 322.82101 326.952 331.39801 336.258 341.397 346.53601 348.46201 352.59299 354.564 356.89499 362.42099 367.28101 369.207 371.133 373.608 375.939 382.41 384.336 386.811 391.67099"
         y="0"
         id="tspan248"
         style="font-size:9px;font-variant:normal;font-weight:300;font-stretch:normal;writing-mode:lr-tb;fill:#515455;fill-opacity:1;fill-rule:nonzero;stroke:none;font-family:Proxima Nova Lt;-inkscape-font-specification:ProximaNova-Light">Designed and implemented a Weebly template to be used by elementary and high schools. Built with </tspan><tspan
         x="0 5.526 10.665 15.804 18.278999 22.41 24.885 27.738001 32.426998 37.449001 39.419998 41.750999 46.439999 51.299999 56.438999 58.77 60.695999 65.556 70.001999 71.928001 76.788002 81.927002 87.029999 91.161003 93.491997 97.623001 102.483 107.586 112.689 117.828 120.681 123.156 125.487 127.872 133.011 135.864 138.19501 142.64101 147.50101 151.632 154.10699 159.246 166.347 168.67799 173.12399 178.263 180.189 185.328 188.181 190.51199 194.64301 199.089 203.94901 209.052 216.153 221.256 225.38699 227.718 232.407 237.267 242.40601 244.737 249.87601 252.351 257.211 262.314 265.16699 267.49799 269.883 274.98599 279.67499 282.14999 287.01001 289.86301 294.966 299.09698 301.06799 303.39899 310.84201 315.98099 318.83401 323.36911 328.47211 333.61111 335.94211 342.41309 344.33911 346.81409 351.6741 354.0051 359.1441 361.61911 366.4791 371.58209 374.43509 376.76611 379.24109 384.34409 389.03311 396.13409"
         y="11.997"
         id="tspan250"
         style="font-size:9px;font-variant:normal;font-weight:300;font-stretch:normal;writing-mode:lr-tb;fill:#515455;fill-opacity:1;fill-rule:nonzero;stroke:none;font-family:Proxima Nova Lt;-inkscape-font-specification:ProximaNova-Light">Bootstrap, and includes support for custom color schemes and other features. Worked with other team </tspan><tspan
         x="0 7.1009998 12.204 19.305 24.444 29.547001 32.400002 36.530998 38.862 41.337002 46.476002 48.806999 51.282001 56.384998 60.515999 62.991001 65.321999 70.011002 74.871002 80.010002 82.341003 87.480003 92.619003 97.065002 101.925 109.026 114.129 118.989 121.464 123.795 126.27 131.13 136.233 138.564 141.039 146.142 153.243 158.34599 160.272 164.961 167.436 172.45799 174.429 176.75999 180.7299 185.8689 191.0079 195.5529 197.8839 202.98689 207.6759 210.5289 213.00391 215.3349 217.26089 222.1209 224.4519 226.9269 232.02991 236.7189 243.8199 246.15089 253.25191 258.35489 263.45789 265.93289 267.85889 272.7189 277.84891 281.97989 283.9509 286.28189 290.97089 295.8309 300.96991 303.3009 308.43091 313.1199 315.0459 319.90591 325.00891 330.14789 332.47891 337.16791 339.4989 344.62891 347.4819 352.5849 357.2739 359.7489 362.0799 367.2189 372.3219 377.01089 378.93689 381.26791 386.40689 388.7919"
         y="23.993999"
         id="tspan252"
         style="font-size:9px;font-variant:normal;font-weight:300;font-stretch:normal;writing-mode:lr-tb;fill:#515455;fill-opacity:1;fill-rule:nonzero;stroke:none;font-family:Proxima Nova Lt;-inkscape-font-specification:ProximaNova-Light">members to test and document the template. Took part in team meetings, and gained a great deal of </tspan><tspan
         x="0 4.5450001 9.4049997 14.544 21.014999 22.941 28.044001 33.182999 38.313 43.416 45.747002 50.886002 55.745998 58.077 63.18 68.040001 70.514999 75.617996 78.471001 83.573997 86.427002 88.352997 92.484001 97.586998 99.917999 104.049 109.188 111.573 114.048 120.519 125.208 128.061 133.164 135.495 140.634 145.737 150.06599 155.16901 157.095 162.23399 167.33701 174.438 179.541 184.401 186.87601"
         y="35.991001"
         id="tspan254"
         style="font-size:9px;font-variant:normal;font-weight:300;font-stretch:normal;writing-mode:lr-tb;fill:#515455;fill-opacity:1;fill-rule:nonzero;stroke:none;font-family:Proxima Nova Lt;-inkscape-font-specification:ProximaNova-Light">knowledge on enterprise software development.</tspan></text>
<text
       transform="matrix(1,0,0,-1,155.126,270.166)"
       id="text256"><tspan
         x="0 9.2729998 15.466 21.791 24.629 31.075001 37.268002 40.897999 46.287998 48.763 54.208 60.401001 65.515999 68.353996 70.983002 77.043999 80.278 86.471001 90.100998"
         y="0"
         id="tspan258"
         style="font-size:11px;font-variant:normal;font-weight:normal;font-stretch:normal;writing-mode:lr-tb;fill:#231f20;fill-opacity:1;fill-rule:nonzero;stroke:none;font-family:Proxima Nova Rg;-inkscape-font-specification:ProximaNova-Regular">Web Services Intern</tspan></text>
<text
       transform="matrix(1,0,0,-1,22.1406,703.6846)"
       id="text260"><tspan
         x="0 6.4699998 9.0600004 13.65 16.4 21.799999 27.51 33.18 38.580002 41.330002 43.919998 49.59 54.990002 57.740002 60.91 66.580002 72.25 75.419998 81.089996 86.489998 92.160004 97.559998 100.73 103.32 110.51 112.65 115.4 120.8 123.39 128.60001 131.19 136.86 142.07001 146.66 151.25 153.39 159.10001 164.5 167.09 169.74001 175.45 178.62 181.21001 186.61 191.2 193.34 198.74001 204.44 207.03 209.78 215.45 220.39 225.78999 231.19 236.89999 239.03999 244.75 250.45 255.25999"
         y="0"
         id="tspan262"
         style="font-size:10px;font-variant:normal;font-weight:300;font-stretch:normal;writing-mode:lr-tb;fill:#515455;fill-opacity:1;fill-rule:nonzero;stroke:none;font-family:Proxima Nova Lt;-inkscape-font-specification:ProximaNova-Light">A student entrepreneur with a passion for using technology </tspan><tspan
         x="0 2.75 8.46 11.05 13.8 16.969999 22.18 27.58 32.169998 34.82 40.529999 43.700001 51.59 54.18 59.849998 65.559998 70.959999 75.900002 81.110001 83.860001 86 91.709999 97.110001 99.699997 104.91 110.31 116.02 118.61 123.2 128.91 131.05 135.86 141.53 144.12 149.83 152.58 157.98 163.64999 166.82001 169.41 174 179.71001 184.64999 186.78999 192 194.14 196.73 202.39999 205.57001 211.28 216.99001 219.13 224.8 232.69 237.28 239.47"
         y="12"
         id="tspan264"
         style="font-size:10px;font-variant:normal;font-weight:300;font-stretch:normal;writing-mode:lr-tb;fill:#515455;fill-opacity:1;fill-rule:nonzero;stroke:none;font-family:Proxima Nova Lt;-inkscape-font-specification:ProximaNova-Light">to transform education and solve other social problems. </tspan></text>
<text
       transform="matrix(1,0,0,-1,22.1406,679.6846)"
       id="text266"><tspan
         x="0 4.6100001 9.8199997 14.86 20.530001 25.120001 27.709999 29.85 35.25 37.389999 40.139999 42.279999 47.490002 50.240002 52.380001 57.189999 62.860001 65.449997 70.660004 76.059998 81.769997 84.360001 89.57 95.239998 100.91 103.05 105.19 110.86 115.45 118.04 123.71 128.92 133.50999 136.25999 138.85001 141.60001 147.27 152.21001 157.61 163.00999 165.14999 170.09 175.3 177.44 180.03 185.7 190.49001 196.16 201.83 205 207.14 212.81 218.21001 223.14999 228.82001 231.41 234.16 239.87 242.46001 247.24001 252.64 258.35001"
         y="0"
         id="tspan268"
         style="font-size:10px;font-variant:normal;font-weight:300;font-stretch:normal;writing-mode:lr-tb;fill:#515455;fill-opacity:1;fill-rule:nonzero;stroke:none;font-family:Proxima Nova Lt;-inkscape-font-specification:ProximaNova-Light">Takes initiative and applies past technical experience to ﬁnd </tspan><tspan
         x="0 4.9400001 8.1099997 13.78 18.99 21.74 23.879999 28.690001 34.360001 36.950001 41.540001 47.25 49.389999 54.790001 57.540001 59.68 65.389999 70.790001 75.379997 77.970001 80.720001 86.43 89.019997 94.690002 97.860001 103.57 109.28 111.42 117.09 124.98 129.57001 131.75999 134.35001 143.02 148.42 150.56 152.7 158.37 160.96001 166.67 172.34 174.48 179.88 185.58 188.17 193.88 199.55 202.3 207.50999 209.64999 211.78999 214.78999 220.5 223.67 225.81 231.48 236.88 239.63 245.3 251.00999 253.2"
         y="12"
         id="tspan270"
         style="font-size:10px;font-variant:normal;font-weight:300;font-stretch:normal;writing-mode:lr-tb;fill:#515455;fill-opacity:1;fill-rule:nonzero;stroke:none;font-family:Proxima Nova Lt;-inkscape-font-specification:ProximaNova-Light">creative solutions to problems. While being detail-oriented, </tspan><tspan
         x="0 5.6700001 10.07 15.01 17.15 19.9 25.57 31.280001 33.869999 36.619999 42.330002 44.919998 47.669998 52.880001 57.918999 63.589001 66.179001 71.889 77.289001 79.878998 84.819 90.219002 95.429001 97.569 99.709 105.379 110.779 116.479 122.149 126.739 129.32899 134.539 139.939 145.649 148.239 155.429 161.13901 164.30901 169.35899 171.94901 177.349 182.74899 188.459 194.129 197.299 199.88901 205.55901 208.729 214.399 218.989 223.57899 228.979 232.149 237.73 239.92"
         y="24"
         id="tspan272"
         style="font-size:10px;font-variant:normal;font-weight:300;font-stretch:normal;writing-mode:lr-tb;fill:#515455;fill-opacity:1;fill-rule:nonzero;stroke:none;font-family:Proxima Nova Lt;-inkscape-font-specification:ProximaNova-Light">excited to take on challenges and work under pressure. </tspan><tspan
         x="0 6.4699998 12.14 17.809999 19.950001 22.09 27.76 32.349998 34.939999 40.650002 46.049999 49.049999 51.799999 57.200001 62.869999 65.870003 68.010002 73.720001 79.43 82.019997 87.690002 93.400002 98.800003 103.74 108.95 111.7 113.84 119.55 124.95 127.54 130.28999 136 138.59 144.25999 149.92999 153.10001 157.69 163.39999 168.8 174.00999 176.14999 178.74001 184.41 187.58 193.28999 195.42999 201.10001 206.03999 208.78999 213.38 215.97 221.17999 226.58 232.28999 234.88 240.09 242.23 249.42 254.63 259.44 264.03"
         y="36"
         id="tspan274"
         style="font-size:10px;font-variant:normal;font-weight:300;font-stretch:normal;writing-mode:lr-tb;fill:#515455;fill-opacity:1;fill-rule:nonzero;stroke:none;font-family:Proxima Nova Lt;-inkscape-font-specification:ProximaNova-Light">Applies on-the-job education to personal projects and always </tspan><tspan
         x="0 4.5900002 10.26 15.93 20.98 25.57 28.16 32.75 38.419998 40.560001 43.209999 46.209999 48.349998 56.240002 61.91 65.080002 70.790001 75.599998 81.269997 89.160004 94.830002 100.23 102.98 105.17 107.76 113.4 118.8 121.97 124.11 128.92 134.59 139.17999 141.77 143.91 149.31 151.89999 157.57001 162.78 165.95 168.09 172.89999 175.89999 180.49001 183.24001 188.45 194.14999 199.82001 202.41 208.12 211.28999 216.99001 222.2 227.60001 229.74001 234.42999 239.64 242.39 244.53 250.24001 255.64 260.23001"
         y="48"
         id="tspan276"
         style="font-size:10px;font-variant:normal;font-weight:300;font-stretch:normal;writing-mode:lr-tb;fill:#515455;fill-opacity:1;fill-rule:nonzero;stroke:none;font-family:Proxima Nova Lt;-inkscape-font-specification:ProximaNova-Light">seeks self-improvement. Thrives in early-stage organizations.</tspan></text>
<text
       transform="matrix(1,0,0,-1,332.9092,151.416)"
       id="text278"><tspan
         x="0 6.4460001 12.738 18.931 24.375999 26.851 32.647999 35.123001 37.598 40.832001 43.306999 49.5"
         y="0"
         id="tspan280"
         style="font-size:11px;font-variant:normal;font-weight:normal;font-stretch:normal;writing-mode:lr-tb;fill:#231f20;fill-opacity:1;fill-rule:nonzero;stroke:none;font-family:Proxima Nova Rg;-inkscape-font-specification:ProximaNova-Regular">Specialities</tspan></text>
<text
       transform="matrix(1,0,0,-1,332.9092,137.416)"
       id="text282"><tspan
         x="0 4.8779998 9.7379999 11.664 13.59 16.290001 20.421 22.896 27.584999 32.030998 36.576 38.907001 45.377998 50.480999 55.619999 57.951 63.09 68.193001 71.901001"
         y="0"
         id="tspan284"
         style="font-size:9px;font-variant:normal;font-weight:300;font-stretch:normal;writing-mode:lr-tb;fill:#515455;fill-opacity:1;fill-rule:nonzero;stroke:none;font-family:Proxima Nova Lt;-inkscape-font-specification:ProximaNova-Light">Full-stack web dev.</tspan><tspan
         x="0 7.1100001 12.249 17.388 22.490999 24.417 27.117001 31.445999 33.372002 38.474998 44.945999 47.646 52.091999 57.230999 62.091 64.566002 67.418999 72.557999 74.484001 76.410004 81.513"
         y="10.8"
         id="tspan286"
         style="font-size:9px;font-variant:normal;font-weight:300;font-stretch:normal;writing-mode:lr-tb;fill:#515455;fill-opacity:1;fill-rule:nonzero;stroke:none;font-family:Proxima Nova Lt;-inkscape-font-specification:ProximaNova-Light">Model-view-controller</tspan></text>
<text
       transform="matrix(1,0,0,-1,332.9092,115.816)"
       id="text288"><tspan
         x="0 5.3460002 10.422 15.624 20.375999 22.761 27.621 29.547001 31.878 37.701 42.84 44.847"
         y="0"
         id="tspan290"
         style="font-size:9px;font-variant:normal;font-weight:300;font-stretch:normal;writing-mode:lr-tb;fill:#515455;fill-opacity:1;fill-rule:nonzero;stroke:none;font-family:Proxima Nova Lt;-inkscape-font-specification:ProximaNova-Light">RESTful APIs</tspan><tspan
         x="0 5.2290001 10.368 12.753 15.228 21.698999 26.388 29.240999 34.344002 36.674999 39.150002 42.002998 47.141998 52.001999 57.140999 59.067001 64.169998 68.301003 73.161003 78.300003 83.439003 85.914001 87.839996 92.699997"
         y="10.8"
         id="tspan292"
         style="font-size:9px;font-variant:normal;font-weight:300;font-stretch:normal;writing-mode:lr-tb;fill:#515455;fill-opacity:1;fill-rule:nonzero;stroke:none;font-family:Proxima Nova Lt;-inkscape-font-specification:ProximaNova-Light">Software troubleshooting</tspan></text>
<g
       id="g294"><g
         clip-path="url(#clipPath298)"
         id="g296"><g
           transform="translate(38.7596,728.1535)"
           id="g302"><path
             d="m 0,0 c -0.837,0.35 -2.814,1.035 -4.037,1.396 -0.106,0.034 -0.121,0.038 -0.121,0.473 0,0.358 0.147,0.719 0.291,1.026 0.157,0.332 0.342,0.89 0.408,1.39 0.186,0.217 0.438,0.641 0.6,1.451 0.143,0.713 0.076,0.973 -0.018,1.217 -0.01,0.026 -0.02,0.051 -0.027,0.076 -0.035,0.168 0.012,1.037 0.134,1.713 0.086,0.463 -0.02,1.448 -0.658,2.262 -0.402,0.516 -1.174,1.146 -2.58,1.234 l -0.771,0 C -8.162,12.15 -8.933,11.52 -9.336,11.004 -9.973,10.19 -10.078,9.205 -9.994,8.742 -9.872,8.066 -9.822,7.197 -9.857,7.033 -9.866,7.004 -9.877,6.979 -9.887,6.953 -9.98,6.709 -10.047,6.449 -9.904,5.736 c 0.162,-0.81 0.414,-1.234 0.599,-1.451 0.067,-0.5 0.252,-1.058 0.409,-1.39 0.114,-0.245 0.167,-0.575 0.167,-1.041 0,-0.436 -0.016,-0.44 -0.115,-0.471 -1.264,-0.373 -3.278,-1.102 -4.029,-1.43 -1.234,1.461 -1.982,3.35 -1.982,5.41 0,4.629 3.767,8.397 8.398,8.397 4.631,0 8.398,-3.768 8.398,-8.397 C 1.941,3.324 1.211,1.455 0,0 m -6.457,14.523 c -5.059,0 -9.161,-4.101 -9.161,-9.16 0,-5.06 4.102,-9.162 9.161,-9.162 5.061,0 9.162,4.102 9.162,9.162 0,5.059 -4.101,9.16 -9.162,9.16"
             id="path304"
             style="fill:#5397d0;fill-opacity:1;fill-rule:nonzero;stroke:none" /></g></g></g><text
       transform="matrix(1,0,0,-1,453.8945,151.6265)"
       id="text306"><tspan
         x="0 5.0050001 11.198 16.643 22.715 28.775999 35.068001 37.542999 43.834999 50.148998 52.624001 58.817001"
         y="0"
         id="tspan308"
         style="font-size:11px;font-variant:normal;font-weight:normal;font-stretch:normal;writing-mode:lr-tb;fill:#231f20;fill-opacity:1;fill-rule:nonzero;stroke:none;font-family:Proxima Nova Rg;-inkscape-font-specification:ProximaNova-Regular">Technologies</tspan></text>
<text
       transform="matrix(1,0,0,-1,453.8945,137.6265)"
       id="text310"><tspan
         x="0 5.1389999 11.466 16.605 18.936001 20.979 25.361099 30.0501 32.903099 37.592098 41.921101 47.024101 48.9501 50.921101 53.252102 59.300098 64.439102 69.578102 74.681099 76.688103 81.8181 86.678101 88.604103 91.079102 96.182098 99.035103"
         y="0"
         id="tspan312"
         style="font-size:9px;font-variant:normal;font-weight:300;font-stretch:normal;writing-mode:lr-tb;fill:#515455;fill-opacity:1;fill-rule:nonzero;stroke:none;font-family:Proxima Nova Lt;-inkscape-font-specification:ProximaNova-Light">PHP (Laravel, CodeIgniter)</tspan><tspan
         x="0 4.23 8.9189997 13.248 17.937 23.166 27.612 30.465 32.390999 37.493999 39.969002 42.299999 44.342999 50.633999 55.772999 60.911999 65.933098 68.264099 70.190102 74.321098 76.292099 78.6231 84.446098 89.306099 94.436096 99.296097 101.2221 105.9111 108.7641 112.9941 118.2231"
         y="10.8"
         id="tspan314"
         style="font-size:9px;font-variant:normal;font-weight:300;font-stretch:normal;writing-mode:lr-tb;fill:#515455;fill-opacity:1;fill-rule:nonzero;stroke:none;font-family:Proxima Nova Lt;-inkscape-font-specification:ProximaNova-Light">JavaScript (Node.js, AngularJS)</tspan><tspan
         x="0 6.3270001 11.403 18.513 23.049 28.287001 30.618 35.082001 37.412998 43.460999 48.689999 53.918999"
         y="21.6"
         id="tspan316"
         style="font-size:9px;font-variant:normal;font-weight:300;font-stretch:normal;writing-mode:lr-tb;fill:#515455;fill-opacity:1;fill-rule:nonzero;stroke:none;font-family:Proxima Nova Lt;-inkscape-font-specification:ProximaNova-Light">HTML5 + CSS3</tspan><tspan
         x="0 5.1389999 9.4680004 11.943 16.802999 21.941999 26.802 28.773001 31.104 35.334 40.022999 44.352001"
         y="32.400002"
         id="tspan318"
         style="font-size:9px;font-variant:normal;font-weight:300;font-stretch:normal;writing-mode:lr-tb;fill:#515455;fill-opacity:1;fill-rule:nonzero;stroke:none;font-family:Proxima Nova Lt;-inkscape-font-specification:ProximaNova-Light">Python, Java</tspan></text>
<text
       transform="matrix(1,0,0,-1,332.9092,80.5112)"
       id="text320"><tspan
         x="0 6.6110001 12.672 18.964001 27.038 29.513 35.706001 42.030998 48.345001"
         y="0"
         id="tspan322"
         style="font-size:11px;font-variant:normal;font-weight:normal;font-stretch:normal;writing-mode:lr-tb;fill:#231f20;fill-opacity:1;fill-rule:nonzero;stroke:none;font-family:Proxima Nova Rg;-inkscape-font-specification:ProximaNova-Regular">Knowledge</tspan></text>
<text
       transform="matrix(1,0,0,-1,332.9092,66.5112)"
       id="text324"><tspan
         x="0 3.9690001 9.0719995 13.203 15.678 18.378 23.517 26.370001 28.296 32.625 37.728001 42.588001 44.918999 50.057999 55.160999 58.868999"
         y="0"
         id="tspan326"
         style="font-size:9px;font-variant:normal;font-weight:300;font-stretch:normal;writing-mode:lr-tb;fill:#515455;fill-opacity:1;fill-rule:nonzero;stroke:none;font-family:Proxima Nova Lt;-inkscape-font-specification:ProximaNova-Light">Test-driven dev.</tspan></text>
<text
       transform="matrix(1,0,0,-1,332.9092,55.7112)"
       id="text328"><tspan
         x="0 5.823 10.953 12.879 14.805 19.908001 22.239 29.34 34.443001 36.917999 41.778 46.917 52.056 57.195 59.120998 64.260002 69.389999 71.316002 76.418999"
         y="0"
         id="tspan330"
         style="font-size:9px;font-variant:normal;font-weight:300;font-stretch:normal;writing-mode:lr-tb;fill:#515455;fill-opacity:1;fill-rule:nonzero;stroke:none;font-family:Proxima Nova Lt;-inkscape-font-specification:ProximaNova-Light">Agile methodologies</tspan></text>
<text
       transform="matrix(1,0,0,-1,332.9092,44.9112)"
       id="text332"><tspan
         x="0 7.1100001 12.249 17.388 19.313999 21.24 26.343 29.042999 33.345001 36.198002 40.328999 42.804001 45.134998 51.605999 56.709 61.848 64.179001 69.318001 74.420998 78.552002 80.477997 85.608002"
         y="0"
         id="tspan334"
         style="font-size:9px;font-variant:normal;font-weight:300;font-stretch:normal;writing-mode:lr-tb;fill:#515455;fill-opacity:1;fill-rule:nonzero;stroke:none;font-family:Proxima Nova Lt;-inkscape-font-specification:ProximaNova-Light">Mobile-ﬁrst web design</tspan><tspan
         x="0 6.1739998 10.305 15.408 18.261 20.591999 25.695 30.006001 35.109001 40.212002 43.064999 44.991001 50.094002 54.953999 59.400002"
         y="10.8"
         id="tspan336"
         style="font-size:9px;font-variant:normal;font-weight:300;font-stretch:normal;writing-mode:lr-tb;fill:#515455;fill-opacity:1;fill-rule:nonzero;stroke:none;font-family:Proxima Nova Lt;-inkscape-font-specification:ProximaNova-Light">User experience</tspan></text>
<g
       id="g338"><g
         clip-path="url(#clipPath342)"
         id="g340"><g
           transform="translate(444.0998,150.7551)"
           id="g346"><path
             d="m 0,0 0,9.404 -13.583,0 0,-9.404 6.53,0 0,-2.09 -1.829,0 0,-0.523 4.18,0 0,0.523 -1.828,0 0,2.09 L 0,0 z"
             id="path348"
             style="fill:#a3dc95;fill-opacity:1;fill-rule:nonzero;stroke:none" /></g><g
           transform="translate(317.1144,162.5266)"
           id="g350"><path
             d="m 0,0 1.656,-5.096 5.397,0 L 2.68,-8.23 4.358,-13.322 0,-10.164 l -4.359,-3.158 1.679,5.092 -4.373,3.134 5.397,0 L 0,0 z"
             id="path352"
             style="fill:#a493d1;fill-opacity:1;fill-rule:nonzero;stroke:none" /></g><g
           transform="translate(324.091,187.1633)"
           id="g354"><path
             d="m 0,0 -2.913,2.912 0.389,0.389 -0.389,0.388 -1.165,-1.164 -1.943,1.942 2.334,2.334 c 0.311,-0.11 0.636,-0.166 0.969,-0.166 0.77,0 1.493,0.299 2.037,0.844 0.84,0.839 1.078,2.087 0.607,3.179 l -0.16,0.371 -1.251,-1.25 -1.009,-0.013 0.014,0.961 1.275,1.275 -0.37,0.16 C -1.939,12.32 -2.325,12.4 -2.724,12.4 -3.493,12.4 -4.216,12.1 -4.76,11.557 -5.557,10.76 -5.812,9.598 -5.436,8.547 l -2.333,-2.332 -3.301,3.301 0.388,0.388 -2.135,2.137 -1.167,-1.166 2.136,-2.137 0.39,0.389 3.302,-3.301 -2.334,-2.334 c -0.312,0.113 -0.639,0.168 -0.974,0.168 -0.768,0 -1.491,-0.299 -2.035,-0.844 -0.842,-0.839 -1.079,-2.089 -0.606,-3.183 l 0.161,-0.371 1.276,1.275 0.961,0.014 -0.014,-1.008 -1.252,-1.252 0.371,-0.16 c 0.364,-0.156 0.749,-0.236 1.145,-0.236 0.769,0 1.492,0.3 2.037,0.843 0.795,0.795 1.05,1.957 0.676,3.006 l 2.335,2.334 1.941,-1.941 -1.164,-1.166 0.388,-0.389 0.389,0.389 2.912,-2.912 c 0.26,-0.26 0.605,-0.403 0.972,-0.403 0.366,0 0.711,0.143 0.971,0.403 0.535,0.535 0.535,1.406 0,1.941"
             id="path356"
             style="fill:#5397d0;fill-opacity:1;fill-rule:nonzero;stroke:none" /></g><g
           transform="translate(311.9583,81.0745)"
           id="g358"><path
             d="m 0,0 c 0.024,-0.016 0.049,-0.033 0.074,-0.055 0.003,-0.002 0.005,-0.002 0.007,-0.006 0.404,-0.318 0.985,-1.064 0.985,-2.046 l 0,-1.045 1.829,0 0,6.312 c -0.45,0.117 -0.783,0.522 -0.783,1.008 0,0.576 0.467,1.045 1.044,1.045 0.577,0 1.045,-0.469 1.045,-1.045 0,-0.486 -0.334,-0.891 -0.783,-1.008 l 0,-6.312 1.828,0 0,1.045 c 0,1.045 0.604,1.793 1.045,2.091 L 6.29,-0.014 c 1.269,0.953 2.091,2.467 2.091,4.174 0,2.887 -2.339,5.225 -5.225,5.225 -2.886,0 -5.224,-2.338 -5.224,-5.225 0,-1.699 0.814,-3.205 2.071,-4.158 L 0,0 z"
             id="path360"
             style="fill:#d06472;fill-opacity:1;fill-rule:nonzero;stroke:none" /></g><path
           d="m 313.025,75.301 4.18,0 0,2.098 -4.18,0 0,-2.098 z"
           id="path362"
           style="fill:#d06472;fill-opacity:1;fill-rule:nonzero;stroke:none" /></g></g><text
       transform="matrix(1,0,0,-1,453.1807,80.4624)"
       id="text364"><tspan
         x="0 2.6289999 8.6899996 11.924 18.117001 21.747 27.940001 33.055 36.289001"
         y="0"
         id="tspan366"
         style="font-size:11px;font-variant:normal;font-weight:normal;font-stretch:normal;writing-mode:lr-tb;fill:#231f20;fill-opacity:1;fill-rule:nonzero;stroke:none;font-family:Proxima Nova Rg;-inkscape-font-specification:ProximaNova-Regular">Interests</tspan></text>
<text
       transform="matrix(1,0,0,-1,453.1807,66.4624)"
       id="text368"><tspan
         x="0 5.526 8.3789997 13.482 18.171 22.716 24.642 29.502001 34.632 36.963001 41.823002 46.925999 53.396999 57.528 59.859001 62.712002 67.815002 72.917999 78.056999 80.910004 83.385002 85.310997 90.170998"
         y="0"
         id="tspan370"
         style="font-size:9px;font-variant:normal;font-weight:300;font-stretch:normal;writing-mode:lr-tb;fill:#515455;fill-opacity:1;fill-rule:nonzero;stroke:none;font-family:Proxima Nova Lt;-inkscape-font-specification:ProximaNova-Light">Breaking news reporting</tspan></text>
<text
       transform="matrix(1,0,0,-1,453.1807,55.6624)"
       id="text372"><tspan
         x="0 5.2290001 10.368 12.753 15.228 21.698999 26.388 29.240999 34.344002 37.043999 42.182999 47.285999 51.588001 56.448002 61.550999 66.690002 69.021004 71.874001 76.563004 81.702003 83.627998"
         y="0"
         id="tspan374"
         style="font-size:9px;font-variant:normal;font-weight:300;font-stretch:normal;writing-mode:lr-tb;fill:#515455;fill-opacity:1;fill-rule:nonzero;stroke:none;font-family:Proxima Nova Lt;-inkscape-font-specification:ProximaNova-Light">Software-deﬁned radio</tspan></text>
<text
       transform="matrix(1,0,0,-1,453.1807,44.8624)"
       id="text376"><tspan
         x="0 5.0760002 9.9359999 12.411 15.264 20.367001 25.469999 28.323 33.425999 38.285999 43.389 48.249001 51.102001 55.233002 60.092999 62.019001"
         y="0"
         id="tspan378"
         style="font-size:9px;font-variant:normal;font-weight:300;font-stretch:normal;writing-mode:lr-tb;fill:#515455;fill-opacity:1;fill-rule:nonzero;stroke:none;font-family:Proxima Nova Lt;-inkscape-font-specification:ProximaNova-Light">Entrepreneurship</tspan></text>
<text
       transform="matrix(1,0,0,-1,453.1807,34.0624)"
       id="text380"><tspan
         x="0 6.8759999 11.979 17.082001 21.941999 24.642 28.773001 33.911999 38.771999 41.625 46.070999 51.174 53.505001 57.636002 62.775002 65.160004 67.635002 74.106003 78.794998 81.648003"
         y="0"
         id="tspan382"
         style="font-size:9px;font-variant:normal;font-weight:300;font-stretch:normal;writing-mode:lr-tb;fill:#515455;fill-opacity:1;fill-rule:nonzero;stroke:none;font-family:Proxima Nova Lt;-inkscape-font-specification:ProximaNova-Light">Open-source software</tspan></text>
<g
       id="g384"><g
         clip-path="url(#clipPath388)"
         id="g386"><path
           d="m 287.06,719.945 -264.92,0 0,0.25 264.92,0 0,-0.25 z"
           id="path392"
           style="fill:#5397d0;fill-opacity:1;fill-rule:nonzero;stroke:none" /><path
           d="m 575.2,179.586 -265.58,0 0,0.25 265.58,0 0,-0.25 z"
           id="path394"
           style="fill:#5397d0;fill-opacity:1;fill-rule:nonzero;stroke:none" /><g
           transform="translate(440.2169,89.8206)"
           id="g396"><path
             d="M 0,0 C -1.224,0 -2.348,-0.568 -3.07,-1.504 -3.794,-0.568 -4.918,0 -6.142,0 c -2.14,0 -3.882,-1.742 -3.882,-3.883 0,-1.006 0.384,-1.961 1.082,-2.687 l 5.477,-5.504 0.395,-0.397 0.394,0.397 5.372,5.398 c 0.762,0.733 1.187,1.727 1.187,2.793 C 3.883,-1.742 2.141,0 0,0"
             id="path398"
             style="fill:#7ed4e0;fill-opacity:1;fill-rule:nonzero;stroke:none" /></g><g
           transform="translate(378.1082,710.734)"
           id="g400"><path
             d="m 0,0 -0.436,0 0,-0.436 -2.18,0 0,0.436 -0.436,0 -3.269,0 -0.436,0 0,-3.924 10.462,0 L 3.705,0 3.269,0 0,0 z"
             id="path402"
             style="fill:#8b7545;fill-opacity:1;fill-rule:nonzero;stroke:none" /></g><path
           d="m 375.492,715.747 2.18,0 0,-0.654 -2.18,0 0,0.654 z m 2.616,-0.654 0,1.09 -3.051,0 0,-1.09 -3.706,0 0,-3.923 0.436,0 3.27,0 0.435,0 0,0.436 2.18,0 0,-0.436 0.436,0 3.27,0 0.436,0 0,3.923 -3.706,0 z"
           id="path404"
           style="fill:#8b7545;fill-opacity:1;fill-rule:nonzero;stroke:none" /></g></g><text
       transform="matrix(1,0,0,-1,17.8521,757.189)"
       id="text406"><tspan
         x="0 48.389 101.758 124.5 181.521 202.769 251.075 299.46399 359.97101 419.565 442.30701 499.07901"
         y="0"
         id="tspan408"
         style="font-size:83px;font-variant:normal;font-weight:bold;font-stretch:normal;writing-mode:lr-tb;fill:#231f20;fill-opacity:1;fill-rule:nonzero;stroke:none;font-family:Proxima Nova Rg;-inkscape-font-specification:ProximaNova-Bold">ERIC TENDIAN</tspan></text>
<text
       transform="matrix(1,0,0,-1,22.0771,166.2861)"
       id="text410"><tspan
         x="0 2.151 4.1760001 6.2010002 8.2259998 13.185 18.333 20.358 24.542999 26.865 29.016001 33.974998 38.16 40.806 42.831001 45.477001 50.436001 53.082001 58.148998 60.471001 65.619003 68.166 70.487999 74.583 79.650002 84.105003 89.072998 94.031998 99.18 101.205 106.353 111.519"
         y="0"
         id="tspan412"
         style="font-size:9px;font-variant:normal;font-weight:normal;font-stretch:normal;writing-mode:lr-tb;fill:#171717;fill-opacity:1;fill-rule:nonzero;stroke:none;font-family:Proxima Nova Rg;-inkscape-font-specification:ProximaNova-Regular">Illinois Institute of Technology</tspan></text>
<text
       transform="matrix(1,0,0,-1,22.0771,154.2891)"
       id="text414"><tspan
         x="0 5.724 10.584 15.714 18.045 23.283001 28.754999 31.527 36.423"
         y="0"
         id="tspan416"
         style="font-size:9px;font-variant:normal;font-weight:300;font-stretch:normal;writing-mode:lr-tb;fill:#515455;fill-opacity:1;fill-rule:nonzero;stroke:none;font-family:Proxima Nova Lt;-inkscape-font-specification:ProximaNova-Light">Aug 2013 </tspan></text>
<text
       transform="matrix(1,0,0,-1,60.8306,154.2861)"
       id="text418"><tspan
         x="0"
         y="0"
         id="tspan420"
         style="font-size:10px;font-variant:normal;font-weight:300;font-stretch:normal;writing-mode:lr-tb;fill:#515455;fill-opacity:1;fill-rule:nonzero;stroke:none;font-family:Proxima Nova Lt;-inkscape-font-specification:ProximaNova-Light">–</tspan></text>
<text
       transform="matrix(1,0,0,-1,69.0913,154.2861)"
       id="text422"><tspan
         x="0 6.2280002 11.331 15.777 18.108 23.346001 28.818001 31.59 36.846001 39.176998 41.220001 46.323002 50.633999 55.737 60.84 65.286003 67.761002 72.863998 78.002998"
         y="0"
         id="tspan424"
         style="font-size:9px;font-variant:normal;font-weight:300;font-stretch:normal;writing-mode:lr-tb;fill:#515455;fill-opacity:1;fill-rule:nonzero;stroke:none;font-family:Proxima Nova Lt;-inkscape-font-specification:ProximaNova-Light">Dec 2016 (expected)</tspan></text>
<text
       transform="matrix(1,0,0,-1,22.0771,140.5312)"
       id="text426"><tspan
         x="0 4.552 6.9039998 11.312 15.912 19.832001 21.632 26.040001 30.632 32.695999 35.048 39.624001 41.688 46.264 50.863998 53.216 57.431999 59.231998 63.639999 65.704002 69.919998 71.984001 77.015999 81.232002 85.192001 89.608002 94.112 95.912003 100.488 103.128 104.7272 108.4472 110.5112 116.1112 120.6152 125.2072 127.8472 132.3512 136.85519 138.9192 140.71919 145.1272 147.19119 149.1032 153.5112 155.77521 160.3512 162.9912 169.4552 173.6712 176.02319 177.8232 182.3992 186.80721 188.8712 192.5112 197.0152 200.9752 205.3912 209.79919 214.3752 216.1752 220.75121 225.3432 229.2632 231.32719 235.5432 239.9512 244.55119"
         y="0"
         id="tspan428"
         style="font-size:8px;font-variant:normal;font-weight:normal;font-stretch:normal;writing-mode:lr-tb;fill:#515455;fill-opacity:1;fill-rule:nonzero;stroke:none;font-family:Proxima Nova Rg;-inkscape-font-specification:ProximaNova-Regular">Studying to obtain a Bachelor’s Degree in Information Technology and </tspan><tspan
         x="0 6.4720001 10.688 15.096 19.312 23.903999 28.408001 34.872002 39.375999 43.784 46.136002"
         y="12"
         id="tspan430"
         style="font-size:8px;font-variant:normal;font-weight:normal;font-stretch:normal;writing-mode:lr-tb;fill:#515455;fill-opacity:1;fill-rule:nonzero;stroke:none;font-family:Proxima Nova Rg;-inkscape-font-specification:ProximaNova-Regular">Management.</tspan></text>
<text
       transform="matrix(1,0,0,-1,72.1251,128.5312)"
       id="text432"><tspan
         x="0 5.6240001 9.7919998 13.64 18.176001 20.247999 24.816 29.351999 33.888 38.208 40.279999 46.032001 50.568001 55.136002 61.448002 65.615997 69.288002 71.487999 76.024002 78.559998 80.632004 82.751999 87.32 89.856003 91.928001 94.127998 98.447998 100.984 105.52 110.056 112.128 115.8 118 122.32 126.888 131.424 135.744 137.944 140.01601 144.584 147.12 151.67999 155.84801 160.168 161.88 165.632 169.8 172 173.71201 178.28 182.60001 186.272 188.024 190.09599 195.632 200.168 204.70399 209.24001 210.952 214.8"
         y="0"
         id="tspan434"
         style="font-size:8px;font-variant:normal;font-weight:300;font-stretch:normal;writing-mode:lr-tb;fill:#515455;fill-opacity:1;fill-rule:nonzero;stroke:none;font-family:Proxima Nova Lt;-inkscape-font-specification:ProximaNova-Light">Have been webmaster for three student organizations. Deeply </tspan></text>
<text
       transform="matrix(1,0,0,-1,22.0771,116.5312)"
       id="text436"><tspan
         x="0 1.712 6.0320001 9.8800001 14.448 16.16 20.007999 24.544001 29.112 31.184 32.896 37.216 39.287998 41 47.312 51.848 54.383999 58.952 62.799999 64.512001 68.832001 73.391998 75.463997 80 84.568001 88.888 92.839996 97.008003 99.208 100.92 105.488 109.808 111.88 114.08 118.616 122.568 126.888 131.20799 135.776 137.48801 142.056 146.616 149.9928 151.7448 153.8168 158.22479 162.39281 164.9288 167.1288 168.84081 172.7928 174.50481 179.0408 183.2088 185.4088 189.94479 194.5128 196.58479 200.75281 205.0728 209.64079 211.7128 217.4648 222.03281 226.3528 228.4248 232.2728 236.4408 238.97681 240.6888 245.25681 249.5768 253.24879"
         y="0"
         id="tspan438"
         style="font-size:8px;font-variant:normal;font-weight:300;font-stretch:normal;writing-mode:lr-tb;fill:#515455;fill-opacity:1;fill-rule:nonzero;stroke:none;font-family:Proxima Nova Lt;-inkscape-font-specification:ProximaNova-Light">involved in improving education technology. Participated and won various </tspan><tspan
         x="0 3.9519999 8.5200005 14.832 19.368 23.903999 26.104 27.816 30.016001 31.728001 36.296001 40.616001 44.287998 46.360001 50.528 54.848 59.416 61.487999 65.807999 69.975998 73.928001 77.968002 82.136002 84.335999 88.655998 93.223999 97.543999 101.216"
         y="12"
         id="tspan440"
         style="font-size:8px;font-variant:normal;font-weight:300;font-stretch:normal;writing-mode:lr-tb;fill:#515455;fill-opacity:1;fill-rule:nonzero;stroke:none;font-family:Proxima Nova Lt;-inkscape-font-specification:ProximaNova-Light">competitions and hackathons.</tspan></text>
<text
       transform="matrix(1,0,0,-1,22.0776,86.9229)"
       id="text442"><tspan
         x="0 6.3720002 11.52 14.49 17.136 22.104 26.289 28.313999 33.488998 38.556 40.877998 46.962002 52.110001 54.134998 56.16 61.227001 66.392998 71.459999 73.781998 79.065002 82.035004 87.101997 92.25 96.992996 99.962997 104.706 107.352 112.5 115.47 119.88 122.202 128.61 130.63499 135.80099 140.769 143.091 148.36501 152.82001 157.78799 162.936 168.084"
         y="0"
         id="tspan444"
         style="font-size:9px;font-variant:normal;font-weight:normal;font-stretch:normal;writing-mode:lr-tb;fill:#171717;fill-opacity:1;fill-rule:nonzero;stroke:none;font-family:Proxima Nova Rg;-inkscape-font-specification:ProximaNova-Regular">Northside College Preparatory High School</tspan></text>
<text
       transform="matrix(1,0,0,-1,22.0776,74.9259)"
       id="text446"><tspan
         x="0 5.2290001 10.332 15.435 17.91 20.240999 25.479 30.951 36.423 41.679001"
         y="0"
         id="tspan448"
         style="font-size:9px;font-variant:normal;font-weight:300;font-stretch:normal;writing-mode:lr-tb;fill:#515455;fill-opacity:1;fill-rule:nonzero;stroke:none;font-family:Proxima Nova Lt;-inkscape-font-specification:ProximaNova-Light">Sept 2009 </tspan></text>
<text
       transform="matrix(1,0,0,-1,66.0864,74.9229)"
       id="text450"><tspan
         x="0 5.9299998 8.5200005 13.22 18.620001 24.02 26.610001 32.43 38.509998 41.59"
         y="0"
         id="tspan452"
         style="font-size:10px;font-variant:normal;font-weight:300;font-stretch:normal;writing-mode:lr-tb;fill:#515455;fill-opacity:1;fill-rule:nonzero;stroke:none;font-family:Proxima Nova Lt;-inkscape-font-specification:ProximaNova-Light">– Jun 2013</tspan></text>
<text
       transform="matrix(1,0,0,-1,22.0771,60.5313)"
       id="text454"><tspan
         x="0 5.704 8.3439999 12.56 17.16 21.568001 25.784 28.136 32.639999 37.240002 39.304001 45.175999 46.976002 49.327999 53.743999 55.807999 60.023998 62.088001 66.503998 68.304001 72.896004 77.311996 79.375999 83.096001 87.056 91.472 96.047997 100.624 102.424 104.488 109.088 110.888 115.464 117.264 121.84 128.304 132.52 134.584 136.84801 139.48801 144.064 150.528 152.592 158 162.416 164.216 168.17599 172.392 176.98399 181.56 183.62399 188.32001 192.728 197.328 199.12801 200.92799 204.888 206.952 211.64 215.60001 220.01601 224.592 229.168 230.968 234.688"
         y="0"
         id="tspan456"
         style="font-size:8px;font-variant:normal;font-weight:normal;font-stretch:normal;writing-mode:lr-tb;fill:#515455;fill-opacity:1;fill-rule:nonzero;stroke:none;font-family:Proxima Nova Rg;-inkscape-font-specification:ProximaNova-Regular">Graduated with a high school diploma from Chicago Public Schools.</tspan></text>
<text
       transform="matrix(1,0,0,-1,22.0771,48.5313)"
       id="text458"><tspan
         x="0 6.6160002 11.184 13.72 17.752001 22.288 26.856001 28.927999 34.68 36.391998 38.591999 42.911999 44.984001 47.183998 51.720001 55.888 59.84 64.160004 68.695999 71.232002 74.903999 76.975998 81.143997 85.463997 90.031998 92.103996 96.272003 100.84 107.152 108.864 113.184 114.896 118.568 120.768 123.304 127.472 129.672 134.24001 136.776 140.448 142.52 144.72 149.28799 151.36 155.92799 160.464 164.312 168.84801 170.56 175.12801 179.664 181.73599 185.90401 187.976 192.29601 196.832 202.584 204.65601 208.608 213.17599 217.496 220.032 223.70399 228.24001 230.312 232.84801 237.384 241.944 243.65601 247.328 249.528 252.064"
         y="0"
         id="tspan460"
         style="font-size:8px;font-variant:normal;font-weight:300;font-stretch:normal;writing-mode:lr-tb;fill:#515455;fill-opacity:1;fill-rule:nonzero;stroke:none;font-family:Proxima Nova Lt;-inkscape-font-specification:ProximaNova-Light">Worked with teachers and administrators to develop a new course registra</tspan></text>
<text
       transform="matrix(1,0,0,-1,278.3091,48.5313)"
       id="text462"><tspan
         x="0"
         y="0"
         id="tspan464"
         style="font-size:8px;font-variant:normal;font-weight:300;font-stretch:normal;writing-mode:lr-tb;fill:#515455;fill-opacity:1;fill-rule:nonzero;stroke:none;font-family:Proxima Nova Lt;-inkscape-font-specification:ProximaNova-Light">-</tspan><tspan
         x="-256.23199 -254.032 -252.32001 -247.752 -243.43201 -241.36 -236.82401 -235.112 -230.944 -228.744 -226.62399 -222.056 -219.52 -213.20799 -211.45599 -209.384 -205.216 -198.90401 -194.336 -190.01601 -185.45599 -183.384 -178.81599 -176.616 -172.29601 -167.75999 -165.224 -163.15199 -160.952 -156.416 -152.464 -148.144 -143.82401 -139.256 -137.54401 -132.976 -128.416 -126.704 -122.168 -118.496 -116.744 -114.672 -109.296 -104.728 -102.328 -100.208 -95.639999 -91.32 -87 -82.431999 -77.896004 -73.328003 -71.255997 -67.727997 -63.192001 -59.240002 -54.919998 -52.848 -48.200001 -43.664001 -39.344002 -35.175999 -32.639999 -28.104 -23.535999 -21.784 -19.712 -15.544 -13.472 -9.5200005 -7.8080001 -3.4879999 1.08"
         y="12"
         id="tspan466"
         style="font-size:8px;font-variant:normal;font-weight:300;font-stretch:normal;writing-mode:lr-tb;fill:#515455;fill-opacity:1;fill-rule:nonzero;stroke:none;font-family:Proxima Nova Lt;-inkscape-font-specification:ProximaNova-Light">tion platform, among other technologies. Co-founded Tech Squared, a club </tspan><tspan
         x="-256.23199 -254.112 -249.54401 -247.008 -244.936 -242.81599 -238.28 -236.56799 -234.856 -230.28799 -224.536 -222.464 -218.79201 -216.592 -212.272 -207.70399 -203.168 -198.84801 -196.64799 -192.976 -190.90401 -189.192 -184.87199 -182.672 -178.136 -175.60001 -171.064 -167.392 -165.192 -160.65601 -156.088 -154.01601 -152.304 -147.98399 -145.912 -141.37601 -137.54401 -133.008 -131.29601 -126.728 -124.192 -122.48 -118.16 -113.6 -111.528 -107.576 -103.008 -96.695999 -92.160004 -87.839996 -85.639999 -81.103996 -78.568001 -76.496002 -72.823997 -68.872002 -67.160004 -62.624001 -58.304001 -54.352001 -49.888"
         y="24"
         id="tspan468"
         style="font-size:8px;font-variant:normal;font-weight:300;font-stretch:normal;writing-mode:lr-tb;fill:#515455;fill-opacity:1;fill-rule:nonzero;stroke:none;font-family:Proxima Nova Lt;-inkscape-font-specification:ProximaNova-Light">for fellow students interested in exploring computer science.</tspan></text>
<g
       id="g470"><g
         clip-path="url(#clipPath474)"
         id="g472"><path
           d="m 286.97,179.585 -264.893,0 0,0.25 264.893,0 0,-0.25 z"
           id="path478"
           style="fill:#5397d0;fill-opacity:1;fill-rule:nonzero;stroke:none" /><g
           transform="translate(376.6376,697.4783)"
           id="g480"><path
             d="m 0,0 c -2.878,0 -5.211,-2.333 -5.211,-5.212 0,-2.302 1.493,-4.255 3.564,-4.945 0.261,-0.047 0.356,0.113 0.356,0.252 0,0.123 -0.005,0.451 -0.007,0.886 -1.45,-0.315 -1.756,0.699 -1.756,0.699 -0.237,0.602 -0.578,0.762 -0.578,0.762 -0.474,0.323 0.035,0.317 0.035,0.317 0.523,-0.037 0.799,-0.537 0.799,-0.537 0.464,-0.797 1.219,-0.567 1.516,-0.433 0.048,0.336 0.182,0.566 0.331,0.696 -1.157,0.132 -2.374,0.579 -2.374,2.576 0,0.569 0.203,1.034 0.537,1.398 -0.054,0.132 -0.233,0.662 0.051,1.38 0,0 0.437,0.14 1.433,-0.535 0.416,0.116 0.861,0.174 1.305,0.176 0.442,-0.002 0.888,-0.06 1.304,-0.176 0.995,0.675 1.432,0.535 1.432,0.535 0.284,-0.718 0.105,-1.248 0.052,-1.38 0.334,-0.364 0.536,-0.829 0.536,-1.398 0,-2.002 -1.219,-2.443 -2.38,-2.572 0.187,-0.161 0.354,-0.479 0.354,-0.965 0,-0.696 -0.006,-1.259 -0.006,-1.429 0,-0.14 0.093,-0.302 0.358,-0.251 2.069,0.69 3.561,2.643 3.561,4.944 C 5.212,-2.333 2.878,0 0,0"
             id="path482"
             style="fill:#171514;fill-opacity:1;fill-rule:evenodd;stroke:none" /></g><g
           transform="translate(378.8295,677.0823)"
           id="g484"><path
             d="m 0,0 c -0.556,0 -1.126,0.116 -1.73,-0.823 l -0.037,0 -0.029,0.904 -1.545,0 c 0.027,-0.492 0.027,-1.228 0.027,-1.925 l 0,-4.025 1.742,0 0,3.439 c 0,0.159 0.023,0.319 0.069,0.435 0.112,0.321 0.402,0.655 0.883,0.655 0.632,0 0.883,-0.495 0.883,-1.217 l 0,-3.312 1.742,0 0,3.53 C 2.005,-0.69 1.147,0 0,0 m -6.455,-5.869 1.742,0 0,5.95 -1.742,0 0,-5.95 z m 0.873,8.356 c -0.561,0 -0.93,-0.384 -0.917,-0.886 -0.013,-0.479 0.356,-0.869 0.904,-0.869 0.573,0 0.941,0.39 0.941,0.869 -0.012,0.502 -0.368,0.886 -0.928,0.886"
             id="path486"
             style="fill:#3373bb;fill-opacity:1;fill-rule:nonzero;stroke:none" /></g></g></g><text
       transform="matrix(1,0,0,-1,155.126,553.2437)"
       id="text488"><tspan
         x="0 5.526 10.386 12.312 14.238 19.377001 21.302999 26.163 31.292999 33.624001 38.313 40.644001 45.504002 50.606998 57.077999 59.409 63.953999 65.879997 70.739998 75.878998 78.209999 83.348999 85.734001 88.065002 93.167999 98.028 100.503 105.606 108.459 113.562 116.415 118.341 122.472 127.575 129.90601 134.037 139.17599 141.561 144.036 150.507 155.196 158.049 163.15199 165.483 170.586 173.439 178.578 183.717 188.577 193.02299 195.498 197.82899 204.3 209.16 211.086 215.532 220.392 222.72301 224.649 229.509 233.955 236.808 241.911 246.60001 250.731 255.834 259.965 262.29599 266.427 268.90201 273.76199 278.901 284.004 288.86401 291.33899 293.67001 297.80099 302.66101 307.10699 311.55301 316.65601 320.78699 324.918 327.24899 330.10199 334.79099 337.26599 342.36899 346.5 348.83099 351.216 356.35501 359.20801 361.539 363.465 368.32501 372.45599 374.931 376.85699 379.332 384.19199 386.66699 388.59299 393.73199 398.59201 402.72299"
         y="0"
         id="tspan490"
         style="font-size:9px;font-variant:normal;font-weight:300;font-stretch:normal;writing-mode:lr-tb;fill:#515455;fill-opacity:1;fill-rule:nonzero;stroke:none;font-family:Proxima Nova Lt;-inkscape-font-specification:ProximaNova-Light">Building a new kind of enterprise software product which increases student success rates for institutions </tspan></text>
<text
       transform="matrix(1,0,0,-1,155.126,541.2467)"
       id="text492"><tspan
         x="0 2.4749999 7.335 10.188 15.327 20.187 25.316999 30.177 32.507999 36.953999 41.643002 44.495998 49.598999 54.702 57.555 60.255001 65.393997 70.083 74.213997 79.317001 84.456001 86.787003 91.475998 95.921997 100.611 105.75 110.853 117.954 119.88 124.326 126.657 131.75999 133.686 138.375 143.235 148.095 150.021 154.881 160.011 161.98199 164.313 170.541 175.644 179.946 184.806 189.909 195.048 197.379 199.854 204.714 209.817 212.14799 219.24899 221.175 225.306 229.437 231.36301 236.502 241.362 243.69299 248.382 253.242 258.38101 260.71201 265.15799 270.297 273.14999 278.25299 280.58401 284.91299 289.60199 291.52802 296.388 301.491 305.62201 307.953 313.09201 315.47699 317.80801 320.28299 325.14301 330.246 332.577 337.02301 342.16199 349.263 354.366 359.05499 363.91501 367.71301 369.68399 372.01501 377.09189 382.19489 386.6409 389.4939 394.35391 396.27991 398.75491 403.85791 408.99689"
         y="0"
         id="tspan494"
         style="font-size:9px;font-variant:normal;font-weight:300;font-stretch:normal;writing-mode:lr-tb;fill:#515455;fill-opacity:1;fill-rule:nonzero;stroke:none;font-family:Proxima Nova Lt;-inkscape-font-specification:ProximaNova-Light">through career-based academic planning. Deﬁned the mission and core values of the company. Recruited </tspan></text>
<text
       transform="matrix(1,0,0,-1,155.126,529.2497)"
       id="text496"><tspan
         x="0 2.4749999 7.164 9.0900002 14.193 19.052999 21.528 26.631001 31.77 34.101002 36.027 40.887001 46.026001 47.952 52.280998 54.207001 59.346001 64.206001 68.894997 70.820999 74.952003 77.282997 79.758003 84.897003 87.227997 89.153999 94.292999 96.219002 101.079 103.41 105.885 110.745 115.848 118.179 120.654 125.757 130.446 137.547 139.87801 144.567 149.427 154.56599 156.897 162 166.86 170.991 175.851 178.70399 183.80701 188.946 191.27699 195.72301 200.862 205.722 209.853 212.328 217.017 221.877 224.35201 226.683 231.129 236.26801 243.369 250.47 255.33 260.19 262.116 266.56201 271.25101 273.72601 275.65201 280.79099 285.651 287.62201 289.953 296.00101 301.14001 306 311.13901 315.99899 320.44501 322.92001 328.02301 333.16199 335.49301 340.353 344.48401 349.58701 352.44 354.771 356.69699 361.55701 364.03201 369.13501 371.98801 376.31699 378.24301 383.34601 389.81699 393.948 396.27899 398.754 403.89301"
         y="0"
         id="tspan498"
         style="font-size:9px;font-variant:normal;font-weight:300;font-stretch:normal;writing-mode:lr-tb;fill:#515455;fill-opacity:1;fill-rule:nonzero;stroke:none;font-family:Proxima Nova Lt;-inkscape-font-specification:ProximaNova-Light">talented individuals to join the team and ensured constant communication. Conducted user interviews to </tspan></text>
<text
       transform="matrix(1,0,0,-1,155.126,517.2527)"
       id="text500"><tspan
         x="0 5.1389999 10.242 14.571 19.674 21.6 26.739 31.841999 34.173 39.276001 42.129002 47.268002 52.407001 57.266998 61.713001 64.188004 66.888 73.988998 78.678001 81.530998 86.067001 91.169998 93.644997 95.975998 100.278 102.753 104.724 107.055 112.194 114.12 118.809 123.669 128.52901 133.632 138.771 141.10201 146.205 149.058 154.19701 159.336 164.196 168.642 171.117 173.448 177.57899 180.054 182.907 187.59599 190.071 195.174 200.304 204.633 206.964 211.653 216.513 221.65199 223.983 229.086 233.04601 238.149 242.595 247.455 249.92999 255.033 260.172 262.50299 264.42899 266.90399 269.23499 271.70999 276.849 279.17999 284.319 289.17899 291.10501 293.03101 298.17001 300.50101 305.19 310.04999 312.38101 319.491 325.314 329.5791"
         y="0"
         id="tspan502"
         style="font-size:9px;font-variant:normal;font-weight:300;font-stretch:normal;writing-mode:lr-tb;fill:#515455;fill-opacity:1;fill-rule:nonzero;stroke:none;font-family:Proxima Nova Lt;-inkscape-font-specification:ProximaNova-Light">develop product-market ﬁt. Planned product strategy and executed it to build an MVP.</tspan></text>
<text
       transform="matrix(1,0,0,-1,155.126,566.6167)"
       id="text504"><tspan
         x="0 7.4359999 13.695 22.110001 24.948 30.745001 36.806 43.131001 45.969002 53.404999 59.696999 62.997002 69.046997 75.338997 81.400002 87.460999 93.786003 99.978996 -133.32001 -125.884 -123.409 -117.612 -113.982 -111.507 -108.394"
         y="0"
         id="tspan506"
         style="font-size:11px;font-variant:normal;font-weight:normal;font-stretch:normal;writing-mode:lr-tb;fill:#231f20;fill-opacity:1;fill-rule:nonzero;stroke:none;font-family:Proxima Nova Rg;-inkscape-font-specification:ProximaNova-Regular">CEO and Co-FounderClarify</tspan></text>
<text
       transform="matrix(1,0,0,-1,21.811,552.6162)"
       id="text508"><tspan
         x="0 6.9200001 12.59 17.530001 20.120001 25.940001 32.02 35.099998 40.509998 43.099998 49.029999 51.619999 57.290001 60.459999 66.129997 70.720001 76.389999 81.790001"
         y="0"
         id="tspan510"
         style="font-size:10px;font-variant:normal;font-weight:300;font-stretch:normal;writing-mode:lr-tb;fill:#515455;fill-opacity:1;fill-rule:nonzero;stroke:none;font-family:Proxima Nova Lt;-inkscape-font-specification:ProximaNova-Light">Dec 2014 – present</tspan></text>
<text
       transform="matrix(1,0,0,-1,22.0347,344.5967)"
       id="text512"><tspan
         x="0 6.6659999 13.112 19.162001 21.636999 24.112 30.426001 36.498001 39.731998 42.57 50.402 56.595001 62.391998 68.717003 75.009003 81.07 86.866997 90.497002 93.731003 99.924004 103.554"
         y="0"
         id="tspan514"
         style="font-size:11px;font-variant:normal;font-weight:normal;font-stretch:normal;writing-mode:lr-tb;fill:#231f20;fill-opacity:1;fill-rule:nonzero;stroke:none;font-family:Proxima Nova Rg;-inkscape-font-specification:ProximaNova-Regular">YSFlight Headquarters</tspan></text>
<text
       transform="matrix(1,0,0,-1,22.0347,330.5967)"
       id="text516"><tspan
         x="0 5.4200001 11.09 16.799999 19.389999 25.209999 31.290001 34.369999 37.450001 40.040001 45.970001 48.560001 53.259998 58.66 64.059998 66.650002 72.470001 78.550003 81.629997"
         y="0"
         id="tspan518"
         style="font-size:10px;font-variant:normal;font-weight:300;font-stretch:normal;writing-mode:lr-tb;fill:#515455;fill-opacity:1;fill-rule:nonzero;stroke:none;font-family:Proxima Nova Lt;-inkscape-font-specification:ProximaNova-Light">Feb 2011 – Jun 2014</tspan></text>
<text
       transform="matrix(1,0,0,-1,155.126,331.2236)"
       id="text520"><tspan
         x="0 7.1100001 11.799 16.659 21.348 26.478001 31.580999 36.720001 39.050999 43.740002 46.070999 48.546001 53.648998 58.338001 65.439003 67.769997 72.908997 75.293999 77.625 82.764 87.866997 92.195999 97.299004 99.224998 104.364 109.467 114.57 117.423 121.554 123.885 130.356 135.216 137.142 141.588 146.448 148.77901 150.705 155.394 160.254 165.114 169.56 174.42 179.52299 184.662 186.993 191.853 196.95599 203.427 205.758 208.233 213.336 217.782 222.642 227.502 232.64101 234.567 239.70599 244.836 249.16499 251.496 253.97099 259.10999 261.44101 263.367 270.46799 275.57101 278.42401 283.56299 287.892 292.995 295.32599 297.80099 302.66101 307.76401 310.095 315.198 317.12399 321.81299 326.142 331.245 334.09799 336.42899 341.53201 345.84299 350.94601 356.04901 358.90201 360.828 365.931 370.79099 375.237 380.34 382.67099 387.35999 392.22 397.35901 399.69 404.82901 407.68201 409.608 413.93701 419.04001"
         y="0"
         id="tspan522"
         style="font-size:9px;font-variant:normal;font-weight:300;font-stretch:normal;writing-mode:lr-tb;fill:#515455;fill-opacity:1;fill-rule:nonzero;stroke:none;font-family:Proxima Nova Lt;-inkscape-font-specification:ProximaNova-Light">Managed a team of developers which launched new technology to improve the player experience and drive </tspan><tspan
         x="0 4.8600001 8.9910002 14.094 16.947001 19.278 24.408001 27.261 32.400002 38.870998 41.346001 46.206001 48.176998 50.507999 56.034 60.894001 62.82 64.746002 67.221001 69.552002 74.240997 76.571999 80.703003 85.563004 90.009003 94.455002 99.557999 103.689 107.82 110.205 115.065 116.991 119.322 125.793 130.896 136.035 140.166 142.092 144.567 149.67 152.00101 154.386 159.52499 162.37801 164.709 169.569 173.7 178.80299 181.65601 184.356 189.48599 194.589 199.44901 204.552 207.405 212.09399 214.569 219.672 224.811 227.142 231.588 236.72701 241.58701 244.062 249.16499 254.02499 256.5 258.47101 260.802 267.91199 272.60101 277.461 282.14999 287.28 292.383 297.522 299.853 302.328 307.18799 312.29099 314.62201 318.75299 320.67899 323.15399 328.25699 330.58801 335.448 340.58701 344.71799 347.19299 349.11899 353.979 359.10901 361.07999 363.41101 370.51199 375.20099 379.51199 381.43799 388.539 390.465 394.686 396.612 401.47198 406.60199"
         y="11.997"
         id="tspan524"
         style="font-size:9px;font-variant:normal;font-weight:300;font-stretch:normal;writing-mode:lr-tb;fill:#515455;fill-opacity:1;fill-rule:nonzero;stroke:none;font-family:Proxima Nova Lt;-inkscape-font-specification:ProximaNova-Light">user growth. Built a successful website for user-generated content. Managed the site hosting, maximizing </tspan></text>
<text
       transform="matrix(1,0,0,-1,155.126,307.2296)"
       id="text526"><tspan
         x="0 2.4749999 7.335 12.438 14.769 19.872 24.975 27.827999 30.212999 35.352001 38.205002 45.306 49.994999 54.855 59.300999 64.403999 66.735001 69.120003 74.259003 77.112 79.443001 81.917999 86.778 91.880997 94.211998 98.901001 103.23 107.919 109.845 111.771 116.46 121.599 123.525 128.62801 130.959 133.812 138.91499 143.04601 148.185 153.045 155.89799 160.34399 165.44701 169.578 171.909 174.384 179.52299 181.854 186.993 189.84599 191.772 196.101 201.20399 203.535 208.395 213.498 215.82899 219.96001 225.063 227.916 232.245 234.17101 238.617 243.72 246.05099 250.38 255.069 256.995 261.85501 266.87701 268.84799 271.17899 276.12091 281.22391 286.3269 288.80191 291.1329 296.27191 298.19791 302.32889 306.7749 311.63489 315.7659 319.89691 321.82291 326.96191 331.8219 335.95291 338.28391 340.2099 342.13589 346.4649 351.5679 353.4939 357.82291 360.1539 364.8429 369.70291 374.84189 377.17291 381.6189 383.54489 387.8739 389.7999 391.72589 394.05688 398.74591 402.87689 405.20789 409.89691"
         y="0"
         id="tspan528"
         style="font-size:9px;font-variant:normal;font-weight:300;font-stretch:normal;writing-mode:lr-tb;fill:#515455;fill-opacity:1;fill-rule:nonzero;stroke:none;font-family:Proxima Nova Lt;-inkscape-font-specification:ProximaNova-Light">the performance for the available resources to drive up service value. Kept discussions lively and civil as a </tspan><tspan
         x="0 2.385 7.5240002 10.377 15.237 22.337999 24.669001 29.358 34.497002 41.598 43.523998 48.383999 50.310001 54.441002 56.916 59.769001 64.458 66.932999 72.071999 74.186996 76.157997 78.488998 84.311996 89.450996 93.779999 95.706001 99.836998 104.94 110.079 112.41 117.099 119.43 123.561 125.487 129.618 132.093 137.196 140.049 142.38 146.511 148.437 150.912 155.93311 157.9041 160.23511 165.618 170.847 177.021 182.12399 184.05 189.189 193.87801 199.017 200.98801 203.319 208.45799 213.31799 215.649 218.12399 223.22701 227.673 232.533 237.39301 242.532 244.45799 249.597 254.72701 259.056 261.38699 265.51801 267.99301 270.84601 275.535 278.01001 283.11301 288.24301 292.0419"
         y="11.997"
         id="tspan530"
         style="font-size:9px;font-variant:normal;font-weight:300;font-stretch:normal;writing-mode:lr-tb;fill:#515455;fill-opacity:1;fill-rule:nonzero;stroke:none;font-family:Proxima Nova Lt;-inkscape-font-specification:ProximaNova-Light">forum administrator. Advised a sister site, YSUpload, on technology strategy.</tspan></text>
<text
       transform="matrix(1,0,0,-1,155.126,344.5967)"
       id="text532"><tspan
         x="0 7.6999998 10.175 13.805 19.997999 25.443001 28.677 34.969002 38.598999 41.437 47.729 50.841999 53.68 58.6861 64.879097 70.324097 76.396103 82.4571 88.7491 91.224098 97.516098 103.8301"
         y="0"
         id="tspan534"
         style="font-size:11px;font-variant:normal;font-weight:normal;font-stretch:normal;writing-mode:lr-tb;fill:#231f20;fill-opacity:1;fill-rule:nonzero;stroke:none;font-family:Proxima Nova Rg;-inkscape-font-specification:ProximaNova-Regular">Director of Technology</tspan></text>
</g></svg>